<svg width="715" height="438" viewBox="0 0 715 438" fill="none" xmlns="http://www.w3.org/2000/svg">
    <path d="M39.9276 437.898L267.676 436.715L328.383 436.697L348.495 436.69L409.318 436.672L687.196 436.596C687.196 436.596 750.755 355.094 682.863 277.685C612.472 197.426 578.244 262.789 556.607 149.816C502.143 -134.555 -36.3369 30.9548 104.902 272.943C155.758 360.076 4.79736 313.764 39.9276 437.898Z" fill="#F2F4FF"/>
    <path d="M249.45 378.549L248.218 377.875C246.904 377.155 246.42 375.5 247.139 374.185L252.798 363.852C253.517 362.537 255.173 362.053 256.487 362.773L258.251 363.739C258.509 363.88 258.603 364.204 258.462 364.461C258.321 364.719 257.998 364.813 257.74 364.672L255.976 363.707C255.176 363.268 254.169 363.563 253.731 364.363L248.073 374.696C247.635 375.496 247.929 376.503 248.729 376.941L249.961 377.616C250.761 378.054 251.768 377.759 252.206 376.959L255.962 370.1C256.104 369.842 256.427 369.748 256.685 369.889C256.942 370.03 257.037 370.353 256.896 370.611L253.14 377.47C252.419 378.785 250.764 379.269 249.45 378.549Z" fill="#C0CAFF"/>
    <path d="M244.2 389.4L241.992 388.191C239.943 387.069 239.254 384.369 240.456 382.173L248.962 366.638C249.103 366.381 249.427 366.286 249.684 366.427C249.942 366.568 250.036 366.891 249.895 367.149L241.389 382.684C240.469 384.365 240.968 386.417 242.503 387.258L244.711 388.467C246.246 389.307 248.244 388.623 249.165 386.941L258.854 369.246C259.775 367.565 259.275 365.513 257.74 364.672C257.482 364.531 257.388 364.208 257.529 363.95C257.67 363.693 257.993 363.598 258.251 363.739C260.301 364.862 260.99 367.561 259.788 369.757L250.098 387.452C248.896 389.649 246.25 390.522 244.2 389.4Z" fill="#C0CAFF"/>
    <path opacity="0.6" d="M456.869 321.082H185.885C179.223 321.082 173.822 315.681 173.822 309.019V81.578C173.822 74.9161 179.223 69.5155 185.885 69.5155H456.869C463.531 69.5155 468.932 74.9161 468.932 81.578V309.019C468.932 315.681 463.531 321.082 456.869 321.082Z" fill="white"/>
    <path d="M468.932 97.431H173.822V78.5216C173.822 73.5481 177.854 69.5165 182.827 69.5165H459.926C464.9 69.5165 468.932 73.5481 468.932 78.5216V97.431H468.932Z" fill="#99A8F8"/>
    <path d="M189.093 86.6424C190.936 86.6424 192.431 85.1483 192.431 83.3052C192.431 81.462 190.936 79.9679 189.093 79.9679C187.25 79.9679 185.756 81.462 185.756 83.3052C185.756 85.1483 187.25 86.6424 189.093 86.6424Z" fill="#DDE7FE"/>
    <path d="M203.101 86.6424C204.945 86.6424 206.439 85.1483 206.439 83.3052C206.439 81.462 204.945 79.9679 203.101 79.9679C201.258 79.9679 199.764 81.462 199.764 83.3052C199.764 85.1483 201.258 86.6424 203.101 86.6424Z" fill="#DDE7FE"/>
    <path d="M217.109 86.6424C218.952 86.6424 220.446 85.1483 220.446 83.3052C220.446 81.462 218.952 79.9679 217.109 79.9679C215.265 79.9679 213.771 81.462 213.771 83.3052C213.771 85.1483 215.265 86.6424 217.109 86.6424Z" fill="#DDE7FE"/>
    <path opacity="0.5" d="M280.863 119.58H197.209V203.234H280.863V119.58Z" fill="#E5E9FF"/>
    <path opacity="0.5" d="M370.149 125.816H303.609C301.863 125.816 300.448 124.4 300.448 122.654C300.448 120.909 301.863 119.493 303.609 119.493H370.149C371.895 119.493 373.31 120.909 373.31 122.654C373.31 124.4 371.895 125.816 370.149 125.816Z" fill="#97A8FF"/>
    <path opacity="0.5" d="M449.719 121.576H383.179C381.433 121.576 380.017 120.16 380.017 118.414C380.017 116.668 381.433 115.253 383.179 115.253H449.719C451.465 115.253 452.88 116.668 452.88 118.414C452.88 120.16 451.464 121.576 449.719 121.576Z" fill="#97A8FF"/>
    <g opacity="0.3">
    <path opacity="0.3" d="M383.321 150.153H302.497C301.366 150.153 300.448 149.236 300.448 148.104C300.448 146.973 301.366 146.055 302.497 146.055H383.321C384.453 146.055 385.37 146.973 385.37 148.104C385.37 149.236 384.453 150.153 383.321 150.153Z" fill="#BDD1F9"/>
    <path opacity="0.3" d="M414.046 150.153H392.71C391.579 150.153 390.661 149.236 390.661 148.104C390.661 146.973 391.579 146.055 392.71 146.055H414.046C415.178 146.055 416.095 146.973 416.095 148.104C416.095 149.236 415.178 150.153 414.046 150.153Z" fill="#BDD1F9"/>
    <path opacity="0.3" d="M332.992 162.861H302.497C301.365 162.861 300.448 161.944 300.448 160.812C300.448 159.681 301.365 158.763 302.497 158.763H332.992C334.124 158.763 335.042 159.681 335.042 160.812C335.042 161.944 334.124 162.861 332.992 162.861Z" fill="#BDD1F9"/>
    <path opacity="0.3" d="M382.386 162.861H340.599C339.468 162.861 338.55 161.944 338.55 160.812C338.55 159.681 339.468 158.763 340.599 158.763H382.386C383.518 158.763 384.435 159.681 384.435 160.812C384.435 161.944 383.518 162.861 382.386 162.861Z" fill="#BDD1F9"/>
    <path opacity="0.3" d="M414.046 162.861H392.71C391.579 162.861 390.661 161.944 390.661 160.812C390.661 159.681 391.579 158.763 392.71 158.763H414.046C415.178 158.763 416.095 159.681 416.095 160.812C416.095 161.944 415.178 162.861 414.046 162.861Z" fill="#BDD1F9"/>
    <path opacity="0.3" d="M343.876 173.85H302.497C301.365 173.85 300.448 172.933 300.448 171.801C300.448 170.669 301.365 169.752 302.497 169.752H343.876C345.008 169.752 345.925 170.669 345.925 171.801C345.925 172.933 345.008 173.85 343.876 173.85Z" fill="#BDD1F9"/>
    <path opacity="0.3" d="M422.894 173.85H355.218C354.086 173.85 353.169 172.933 353.169 171.801C353.169 170.669 354.086 169.752 355.218 169.752H422.894C424.025 169.752 424.943 170.669 424.943 171.801C424.943 172.933 424.025 173.85 422.894 173.85Z" fill="#BDD1F9"/>
    </g>
    <g opacity="0.3">
    <path opacity="0.3" d="M383.321 190.526H302.497C301.366 190.526 300.448 189.608 300.448 188.477C300.448 187.345 301.366 186.428 302.497 186.428H383.321C384.453 186.428 385.37 187.345 385.37 188.477C385.37 189.608 384.453 190.526 383.321 190.526Z" fill="#BDD1F9"/>
    <path opacity="0.3" d="M414.046 190.525H392.71C391.579 190.525 390.661 189.608 390.661 188.477C390.661 187.345 391.579 186.428 392.71 186.428H414.046C415.178 186.428 416.095 187.345 416.095 188.477C416.095 189.608 415.178 190.525 414.046 190.525Z" fill="#BDD1F9"/>
    <path opacity="0.3" d="M332.992 203.234H302.497C301.365 203.234 300.448 202.316 300.448 201.185C300.448 200.053 301.365 199.136 302.497 199.136H332.992C334.124 199.136 335.042 200.053 335.042 201.185C335.042 202.316 334.124 203.234 332.992 203.234Z" fill="#BDD1F9"/>
    <path opacity="0.3" d="M382.386 203.234H340.599C339.468 203.234 338.55 202.316 338.55 201.185C338.55 200.053 339.468 199.136 340.599 199.136H382.386C383.518 199.136 384.435 200.053 384.435 201.185C384.435 202.316 383.518 203.234 382.386 203.234Z" fill="#BDD1F9"/>
    </g>
    <path d="M234.717 132.05H243.356L266.697 185.477H256.845L251.465 172.67H226.381L220.924 185.477H211.376L234.717 132.05ZM248.055 164.41L238.885 143.191L229.791 164.41H248.055Z" fill="#D2D9FF"/>
    <path d="M243.94 220.085H197.21V229.106H243.94V220.085Z" fill="#F99746"/>
    <path d="M243.939 229.106H197.209V238.127H243.939V229.106Z" fill="#ED7D2B"/>
    <path d="M243.939 238.128H197.209V247.149H243.939V238.128Z" fill="#455FE8"/>
    <path d="M278.37 225.192H252.659C251.583 225.192 250.711 224.32 250.711 223.244C250.711 222.168 251.583 221.296 252.659 221.296H278.37C279.446 221.296 280.318 222.168 280.318 223.244C280.318 224.32 279.446 225.192 278.37 225.192Z" fill="#C9D1FF"/>
    <path d="M269.708 232.059H252.658C251.582 232.059 250.71 231.187 250.71 230.111C250.71 229.035 251.582 228.163 252.658 228.163H269.708C270.784 228.163 271.656 229.035 271.656 230.111C271.656 231.187 270.784 232.059 269.708 232.059Z" fill="#C9D1FF"/>
    <path d="M243.94 266.729H197.21V285.162H243.94V266.729Z" fill="#F99746"/>
    <path d="M243.939 280.61H197.209V293.793H243.939V280.61Z" fill="#B5453C"/>
    <path d="M197.21 266.729L213.974 280.81L197.21 293.793V266.729Z" fill="#455FE8"/>
    <path d="M278.37 271.836H252.659C251.583 271.836 250.711 270.964 250.711 269.888C250.711 268.812 251.583 267.94 252.659 267.94H278.37C279.446 267.94 280.318 268.812 280.318 269.888C280.318 270.964 279.446 271.836 278.37 271.836Z" fill="#C9D1FF"/>
    <path d="M269.708 278.703H252.658C251.582 278.703 250.71 277.831 250.71 276.755C250.71 275.68 251.582 274.807 252.658 274.807H269.708C270.784 274.807 271.656 275.68 271.656 276.755C271.656 277.831 270.784 278.703 269.708 278.703Z" fill="#C9D1FF"/>
    <path d="M471.912 92.2979C471.912 92.2979 473.128 106.803 469.824 106.583C466.519 106.364 459.994 99.978 446.827 101.017C433.66 102.055 417.549 104.936 407.811 87.7031C398.073 70.4698 420.266 65.5099 420.266 65.5099L471.912 92.2979Z" fill="#445DDE"/>
    <path d="M443.922 91.2355L510.27 96.6915L511.649 93.7398L448.04 46.786L383.786 39.2795L382.551 41.9206L443.922 91.2355Z" fill="#5870F3"/>
    <path d="M489.074 141.202C488.683 139.837 487.258 139.047 485.893 139.437C484.527 139.828 483.737 141.252 484.128 142.618C484.519 143.984 485.943 144.774 487.308 144.383C488.674 143.992 489.464 142.568 489.074 141.202Z" fill="#F99746"/>
    <path d="M486.862 141.917C489.523 141.71 490.145 165.923 490.145 165.923C490.145 165.923 488.41 166.739 487.557 166.547C486.704 166.355 486.269 163.086 486.269 163.086L486.186 166.514C486.186 166.514 483.268 166.615 482.256 165.905C482.256 165.905 482.652 142.245 486.862 141.917Z" fill="#F99746"/>
    <path d="M487.729 142.462L487.249 89.5606L486.906 89.3041L452.249 63.6674L451.005 65.3525L485.316 90.733L486.09 142.371L487.729 142.462Z" fill="#F99746"/>
    <path d="M532.442 392.043H386.685V336.664H532.927C544.748 336.664 554.33 346.247 554.33 358.067V370.155C554.33 382.244 544.531 392.043 532.442 392.043Z" fill="#FCECDB"/>
    <path d="M679.365 359.449V367.78C679.365 372.233 678.247 376.401 676.291 379.985C672.363 387.196 665.058 392.042 656.695 392.042H382.196C380.38 392.042 378.908 390.467 378.908 388.526V387.278C378.908 385.337 380.38 383.762 382.196 383.762H549.528C550.423 382.594 551.211 381.331 551.877 379.985C553.444 376.825 554.33 373.222 554.33 369.397V358.806C554.33 356.859 554.095 354.969 553.652 353.171C552.902 350.122 551.562 347.331 549.772 344.947H382.196C380.38 344.947 378.908 343.372 378.908 341.428V340.184C378.908 338.239 380.38 336.664 382.196 336.664H658.078C667.799 336.664 675.999 343.64 678.544 353.171C679.079 355.166 679.365 357.272 679.365 359.449Z" fill="#A5B3FF"/>
    <path d="M678.545 353.171H553.653C552.903 350.122 551.563 347.331 549.773 344.947H382.197C380.38 344.947 378.909 343.372 378.909 341.428V340.184C378.909 338.239 380.38 336.664 382.197 336.664H658.079C667.8 336.664 676 343.64 678.545 353.171Z" fill="#8195FF"/>
    <path d="M386.685 364.354L407.01 365.285L386.685 365.846V364.354Z" fill="#F4D2B8"/>
    <path d="M386.685 373.043L435.04 373.974L386.685 374.535V373.043Z" fill="#F4D2B8"/>
    <path d="M365.387 435.003H508.47V391.928H364.127C353.407 391.928 344.716 400.618 344.716 411.338V414.332C344.716 425.748 353.971 435.003 365.387 435.003Z" fill="#F99746"/>
    <path d="M501.576 435.002H664.65V391.927H501.128C490.229 391.927 481.393 400.763 481.393 411.662V414.819C481.393 425.966 490.429 435.002 501.576 435.002Z" fill="#FCECDB"/>
    <path d="M470.619 435.002H670.153C671.808 435.002 673.15 433.66 673.15 432.005V431.557C673.15 429.902 671.809 428.56 670.153 428.56H470.619C468.964 428.56 467.622 429.901 467.622 431.557V432.005C467.622 433.66 468.964 435.002 470.619 435.002Z" fill="#F99746"/>
    <path d="M470.619 398.369H670.153C671.808 398.369 673.15 397.027 673.15 395.372V394.924C673.15 393.269 671.809 391.927 670.153 391.927H470.619C468.964 391.927 467.622 393.269 467.622 394.924V395.372C467.622 397.027 468.964 398.369 470.619 398.369Z" fill="#F99746"/>
    <path d="M664.65 413.465L642.432 414.189L664.65 414.625V413.465Z" fill="#F4D2B8"/>
    <path d="M664.649 403.552L611.792 404.276L664.649 404.712V403.552Z" fill="#F4D2B8"/>
    <path d="M612.337 404.132C612.337 404.132 614.601 405.983 615.352 409.025C615.484 409.556 615.569 410.127 615.587 410.727C615.712 414.769 615.587 423.916 615.587 423.916L622.274 419.343L628.944 423.916V411.518C628.944 409.173 628.372 406.893 627.309 405.4C626.794 404.676 626.17 404.132 625.462 404.132H612.337V404.132Z" fill="#8597F6"/>
    <path d="M612.337 404.132C612.337 404.132 614.601 405.983 615.352 409.025L628.753 409.206C628.753 409.206 628.227 404.85 625.462 404.132H612.337Z" fill="#687EF3"/>
    <path d="M490.735 336.781H349.908V273.494H491.248C503.744 273.494 513.875 283.625 513.875 296.122V313.64C513.875 326.421 503.515 336.781 490.735 336.781Z" fill="#FCECDB"/>
    <path d="M513.956 298.051V311.671C513.921 317.488 511.225 322.535 507.263 325.234C505.313 326.558 503.058 327.315 500.663 327.315H345.593C343.775 327.315 342.302 329.075 342.302 331.245V332.852C342.302 335.022 343.775 336.783 345.593 336.783H613.479C621.166 336.783 627.958 332.219 632.061 325.234C634.649 320.833 636.167 315.474 636.167 309.685V298.939C636.167 294.974 635.408 291.218 634.052 287.874C630.607 279.365 623.311 273.496 614.865 273.496H345.592C343.775 273.496 342.302 275.253 342.302 277.423V279.03C342.302 281.201 343.775 282.961 345.592 282.961H501.137C504.854 282.961 508.219 284.851 510.57 287.874C512.651 290.553 513.935 294.12 513.956 298.051Z" fill="#D8DEFF"/>
    <path d="M342.302 331.244V332.852C342.302 335.022 343.775 336.782 345.592 336.782H613.479C621.166 336.782 627.958 332.218 632.061 325.233H507.263C505.312 326.557 503.058 327.315 500.663 327.315H345.592C343.775 327.314 342.302 329.074 342.302 331.244Z" fill="#AAB8FF"/>
    <path d="M349.908 305.138L369.787 306.201L349.908 306.842V305.138Z" fill="#F4D2B8"/>
    <path d="M349.908 290.573L397.201 291.637L349.908 292.278V290.573Z" fill="#F4D2B8"/>
    <path d="M396.715 291.425C396.715 291.425 393.594 293.432 392.56 296.731C392.377 297.307 392.26 297.926 392.236 298.576C392.064 302.959 392.236 312.878 392.236 312.878L383.021 307.918L373.83 312.878V299.434C373.83 296.892 374.619 294.42 376.083 292.8C376.793 292.016 377.654 291.425 378.629 291.425H396.715V291.425Z" fill="#F99746"/>
    <path d="M396.715 291.425C396.715 291.425 393.594 293.432 392.56 296.731L374.094 296.927C374.094 296.927 374.819 292.204 378.629 291.425H396.715Z" fill="#ED7D2B"/>
    <path d="M161.316 331.184C161.316 331.184 190.182 343.76 195.423 343.532C200.662 343.303 232.951 333.697 232.951 333.697L232.129 339.252C232.129 339.252 207.211 353.583 198.499 354.396C189.922 355.196 160.596 346.698 157.765 344.904C154.934 343.11 153.088 333 161.316 331.184Z" fill="#ED985F"/>
    <path d="M156.979 284.917C156.979 284.917 146.329 282.895 141.026 286.768C131.418 293.784 130.902 317.972 127.301 321.575C123.701 325.179 115.021 323.641 114.248 342.285C113.475 360.93 117.704 362.489 112.668 370.811C107.632 379.134 114.799 387.464 114.799 387.464C114.799 387.464 111.864 382.87 113.121 379.554C113.121 379.554 114.343 386.872 118.993 388.588C123.642 390.303 124.33 391.561 125.072 394.077C125.072 394.077 164.738 373.752 164.781 359.335C164.824 344.919 172.587 330.638 168.775 324.391C168.775 324.391 170.473 327.064 170.681 330.037C170.681 330.037 172.968 325.654 169.003 321.575C165.039 317.495 173.654 309.053 172.379 299.275C171.502 292.563 166.792 285.209 156.979 284.917Z" fill="#233862"/>
    <path d="M164.824 344.919C162.289 346.678 159.11 348.128 155.119 349.049C140.16 352.505 134.427 339.862 132.274 331.184C134.314 330.016 136.234 329.759 137.342 329.627C138.423 329.499 139.56 329.414 140.502 329.368C142.182 328.081 144.685 322.816 145.238 314.64L145.942 314.829L157.732 318.056C157.732 318.056 157.192 321.803 156.927 325.346C156.722 328.117 156.69 330.766 157.215 331.414C158.135 331.614 158.687 331.744 158.687 331.744C158.687 331.744 158.688 331.748 158.693 331.756C158.851 332.014 162.272 337.639 164.824 344.919Z" fill="#FFB27D"/>
    <path d="M157.732 318.057C157.732 318.057 157.19 321.802 156.927 325.347C150.248 324.679 147.149 318.319 145.942 314.831L157.732 318.057Z" fill="#ED985F"/>
    <path d="M159.727 321.575C159.727 321.575 143.873 320.701 144.57 310.836C145.266 300.972 143.689 294.215 153.841 294.357C163.993 294.498 165.691 298.401 166.26 301.75C166.828 305.099 163.869 321.549 159.727 321.575Z" fill="#FFB27D"/>
    <path d="M166.182 296.232C163.947 293.089 162.051 293.608 160.95 294.425C152.636 289.046 146.555 295.681 146.555 295.681C144.988 302.682 139.593 306.371 139.593 306.371C139.593 306.371 142.351 308.36 149.128 307.127C151.198 306.75 153.116 305.436 154.784 303.794C151.768 308.114 147.869 311.104 147.869 311.104C156.081 308 160.065 297.175 160.467 296.029C161.372 296.966 163.142 298.989 163.59 300.879C164.2 303.447 166.828 307.462 168.347 307.395C168.347 307.395 169.534 300.945 166.182 296.232Z" fill="#233862"/>
    <path d="M127.758 377.152C126.327 369.833 121.659 340.592 126.327 331.183C128.003 327.803 134.582 327.498 141.799 327.794C144.045 329.245 152.604 334.724 156.119 334.04C156.157 334.033 156.225 334.016 156.316 333.993C157.971 333.579 158.596 332.416 157.215 331.414C157.212 331.412 160.79 331.069 165.23 331.905C167.737 332.377 174.5 335.876 174.5 335.876C174.5 335.876 171.094 342.029 166.072 344.153C166.926 351.792 165.656 355.162 157.731 372.807C151.035 387.721 158.635 401.149 158.635 401.149C158.635 401.149 119.214 432.844 118.994 416.706C118.83 404.557 129.588 386.506 127.758 377.152Z" fill="#F9DDBF"/>
    <path d="M160.589 435.613C162.733 435.371 164.663 434.197 165.862 432.403C166.052 432.118 166.255 431.812 166.471 431.485C170.958 424.692 172.704 403.889 182.797 381.727C185.256 376.332 194.081 375.361 196.487 369.261C196.487 369.261 202.409 349.492 185.151 348.909C167.892 348.326 138.929 403.916 138.472 409.746C138.029 415.394 127.062 439.396 160.589 435.613Z" fill="#DD6D22"/>
    <path d="M229.185 435.158H204.62C204.62 435.158 203.702 431.24 205.315 428.574C206.742 426.215 206.195 424.872 205.138 422.92C206.251 423.376 207.69 423.79 209.275 423.699C210.499 423.629 211.793 423.074 212.928 422.414C213.986 423.62 218.513 428.75 219.927 429.767C221.533 430.92 228.691 430.509 229.185 435.158Z" fill="#233862"/>
    <path d="M197.048 354.624C198.528 365.713 204.304 400.714 214.493 417.79C217.778 423.295 206.216 426.382 206.154 426.365C204.603 425.96 202.02 423.487 200.83 422.414C192.557 414.959 175.764 393.848 175.764 376.923C175.764 368.671 175.62 352.91 181.62 348.905C185.316 346.438 196.461 350.22 197.048 354.624Z" fill="#ED7D2B"/>
    <path d="M145.941 435.159C145.941 435.159 146.852 433.892 148.439 431.486C150.328 428.624 152.418 422.993 154.955 415.775C157.619 408.198 160.78 398.875 164.73 389.176C165.949 386.182 167.244 383.151 168.62 380.126C171.079 374.73 177.842 375.476 180.248 369.376C180.248 369.376 189.637 348.232 172.378 347.648C155.12 347.065 122.324 404.212 120.44 409.746C118.377 415.805 108.311 440.963 145.941 435.159Z" fill="#F99746"/>
    <path d="M211.153 435.158H186.588C186.588 435.158 185.67 431.24 187.283 428.574C188.71 426.215 188.163 424.872 187.106 422.92C188.219 423.376 189.658 423.79 191.243 423.699C192.467 423.629 193.761 423.074 194.896 422.414C195.954 423.62 200.481 428.75 201.895 429.767C203.5 430.92 210.659 430.509 211.153 435.158Z" fill="#2B478B"/>
    <path d="M154.955 415.775C157.619 408.198 160.78 398.875 164.73 389.176C163.698 381.827 161.473 375.398 157.731 372.807C157.731 372.807 148.654 400.929 154.955 415.775Z" fill="#ED7D2B"/>
    <path d="M182.709 353.838C184.188 364.927 186.271 400.714 196.461 417.79C199.746 423.295 188.184 426.381 188.122 426.365C186.571 425.959 183.988 423.487 182.797 422.414C174.525 414.959 157.732 393.848 157.732 376.923C157.732 368.671 167.417 353.572 173.418 349.566C177.113 347.1 182.121 349.434 182.709 353.838Z" fill="#F99746"/>
    <path d="M162.694 315.903C162.694 315.903 161.195 315.31 156.978 315.652C156.978 315.652 157.202 317.297 160.312 317.46C162.074 317.551 162.694 315.903 162.694 315.903Z" fill="white"/>
    <path d="M236.031 322.077L230.938 312.889L219.921 343.631L226.421 350.609L236.031 322.077Z" fill="#163560"/>
    <path d="M209.439 327.459L199.198 356.716L226.421 350.609L236.031 322.077L209.439 327.459Z" fill="#455FE8"/>
    <path d="M199.741 355.24L199.264 354.406L208.955 326.719L209.439 327.459L199.741 355.24Z" fill="#EFDECE"/>
    <path d="M208.955 326.719L234.764 321.697L236.031 322.078L209.439 327.459L208.955 326.719Z" fill="#FCECDB"/>
    <path d="M236.031 322.077L230.524 313.335L227.014 323.204L234.764 321.696L236.031 322.077Z" fill="#EFDECE"/>
    <path d="M217.3 331.695C216.415 331.525 214.516 330.809 212.593 330.28C213.167 329.835 213.805 329.287 213.984 328.725C214.327 327.641 214.555 327.293 213.412 327.636C212.268 327.979 208.267 329.814 208.267 329.814C208.267 329.814 208.276 329.819 208.278 329.82C206.004 330.484 203.91 333.697 203.91 333.697C203.91 333.697 175.765 343.591 172.378 343.76C167.14 344.023 132.275 331.184 132.275 331.184C124.046 333 125.892 343.11 128.724 344.904C131.555 346.698 156.643 355.825 171.511 355.996C179.042 356.083 206.436 338.477 206.436 338.477C206.436 338.477 209.638 337.013 212.154 337.471C214.67 337.928 220.502 337.471 221.76 335.412C223.018 333.354 218.787 331.981 217.3 331.695Z" fill="#FFB27D"/>
    <path d="M150.237 337.516C150.237 337.516 147.119 347.387 136.409 349.633C136.409 349.633 118.724 344.185 127.53 332.137C127.53 332.137 136.236 325.667 150.237 337.516Z" fill="#F9DDBF"/>
    <path d="M235.573 332.439L235.571 332.441C235.578 332.167 235.55 331.898 235.478 331.638C235.478 331.638 232.955 327.648 232.129 327.485C229.612 326.988 229.612 330.301 230.146 332.439C230.518 333.927 231.464 335.357 232.229 336.128L232.229 336.129L232.129 339.251C236.38 336.915 235.573 332.439 235.573 332.439Z" fill="#FFB27D"/>
    <path d="M87.8133 280.332C88.8186 255.45 67.9634 244.396 46.639 244.396C25.3146 244.396 2.10882 249.921 0.0981509 283.007C-1.19543 304.292 10.1515 317.389 42.8248 317.389C53.8441 317.389 62.4081 315.651 68.9675 312.552L85.3 327.065L77.2739 307.005C84.3841 300.394 87.3797 291.069 87.8133 280.332Z" fill="#F5F6FF"/>
    <path d="M514.951 205.657C515.87 182.91 496.804 172.804 477.309 172.804C457.814 172.804 436.599 177.855 434.761 208.103C433.578 227.561 443.952 239.535 473.822 239.535C483.896 239.535 491.725 237.946 497.722 235.113L512.653 248.38L505.316 230.041C511.816 223.998 514.555 215.473 514.951 205.657Z" fill="#C5CEFF"/>
    <path d="M508.884 325.677C513.51 333.862 519.378 337.05 519.378 337.05L543.885 337.223C543.885 337.223 505.355 319.434 508.884 325.677Z" fill="#233862"/>
    <path d="M527.261 388.88C527.895 389.616 527.97 390.434 527.648 391.305C527.648 391.309 527.646 391.314 527.642 391.318C527.046 392.929 525.102 394.719 522.846 396.504C522.558 396.734 522.302 396.942 522.078 397.136C522.02 397.186 521.961 397.237 521.906 397.288C521.86 397.327 521.816 397.368 521.773 397.406C519.668 399.32 520.452 399.767 516.666 403.653C512.349 408.081 509.399 408.141 508.562 407.729C507.855 407.377 509.314 405.023 510.931 402.377C511.01 402.249 511.086 402.12 511.167 401.991C511.382 401.639 511.596 401.282 511.81 400.928C513.706 397.743 513.236 396.239 512.825 391.475C512.492 387.605 506.96 369.822 506.96 369.822L515.181 368.466C515.181 368.466 517.554 382.611 520.264 384.806C521.712 385.976 523.343 386.002 524.737 386.872C524.836 386.932 524.933 386.994 525.027 387.058C525.819 387.591 526.626 388.141 527.261 388.88Z" fill="#FFB27D"/>
    <path d="M527.261 388.88C527.895 389.616 527.97 390.435 527.648 391.306C527.648 391.309 527.645 391.314 527.642 391.318C526.914 392.927 525.019 394.708 522.838 396.488C522.553 396.721 522.302 396.936 522.078 397.136C522.019 397.186 521.96 397.237 521.905 397.288C521.86 397.328 521.816 397.369 521.772 397.406C519.667 399.32 520.451 399.767 516.666 403.653C512.349 408.081 509.398 408.141 508.562 407.729C507.854 407.377 509.314 405.023 510.931 402.377C511.767 402.077 515.653 400.531 518.609 396.803C521.212 393.528 522.963 389.31 524.737 386.872C524.835 386.933 524.932 386.995 525.026 387.058C525.819 387.591 526.626 388.142 527.261 388.88Z" fill="#233862"/>
    <path d="M461.085 383.284C460.56 385.815 456.95 385.367 452.921 384.352C448.891 383.337 449.842 384.516 444.102 383.84C438.361 383.163 436.636 381.009 436.467 380.153C436.315 379.394 439.156 379.147 442.203 378.818C442.586 378.778 442.971 378.733 443.356 378.688C446.797 378.281 449.33 376.081 452.465 374.281C455.435 372.576 459.899 365.577 459.899 365.577L467.773 366.256C467.773 366.256 463.594 372.507 461.976 375.226C461.024 376.825 461.059 378.949 461.165 380.589C461.219 381.481 461.271 382.392 461.085 383.284Z" fill="#FFB27D"/>
    <path d="M452.921 384.352C448.891 383.338 449.842 384.517 444.102 383.84C438.361 383.164 436.636 381.01 436.467 380.154C436.315 379.395 439.156 379.148 442.203 378.818L442.231 378.877C442.231 378.877 445.659 381.344 450.44 381.492C454.337 381.615 458.474 380.527 461.165 380.59C461.219 381.481 461.271 382.393 461.085 383.284C460.56 385.815 456.95 385.367 452.921 384.352Z" fill="#233862"/>
    <path d="M491.633 333.12L498.859 352.99L508.292 378.935C508.292 378.935 510.9 379.205 513.403 378.504C515.708 377.856 518.361 376.135 518.361 376.135C518.361 376.135 515.887 348.331 511.018 332.346C509.771 328.243 508.364 324.922 506.798 323.047C499.141 313.867 491.633 333.12 491.633 333.12Z" fill="#233862"/>
    <path d="M499.344 301.698C504.18 300.176 517.928 302.271 531.733 305.075L534.661 300.321L564.537 298.2C564.537 298.2 574.236 320.12 568.744 334.005C567.937 336.046 565.968 336.895 563.282 336.919C563.281 336.92 563.28 336.922 563.279 336.923C563.279 336.923 545.458 337.232 539.687 337.191C524.837 337.087 508.332 326.762 506.19 326.318C502.685 325.591 501.231 332.601 497.67 339.948C494.107 347.294 464.444 372.359 464.444 372.359C464.444 372.359 459.912 372.372 458.045 371.657C456.037 370.888 455.308 369.902 455.308 369.902C455.308 369.902 488.438 305.131 499.344 301.698Z" fill="#2B478B"/>
    <path d="M535.127 259.201C545.718 265.13 567.204 277.42 567.316 277.342C567.316 277.342 575.224 280.385 579.743 277.43C587.275 272.504 591.39 259.133 577.761 247.505C570.964 241.706 566.116 240.271 565.442 231.083C565.077 226.099 558.383 209.609 547.057 211.05C546.11 211.17 545.157 211.254 544.204 211.217C542.883 211.165 540.7 211.342 538.452 212.659C532.021 216.426 519.202 256.822 535.127 259.201Z" fill="#233862"/>
    <path d="M544.074 254.28C544.027 254.31 549.293 256.149 552.833 254.611C556.164 253.167 558.718 247.722 558.669 247.719C557.159 247.639 555.51 246.306 554.294 237.632L553.649 237.858L542.807 241.673C542.807 241.673 543.566 245.149 544.05 248.456C544.457 251.233 544.667 253.892 544.074 254.28Z" fill="#FFB27D"/>
    <path d="M542.807 241.673C542.807 241.673 543.269 244.109 543.911 247.59C550.13 246.516 552.751 241.21 553.649 237.858L542.807 241.673Z" fill="#ED975D"/>
    <path d="M541.172 245.106C541.172 245.106 555.982 243.225 554.668 234.02C553.355 224.815 554.381 218.372 544.87 219.185C535.359 219.997 534.027 223.771 533.718 226.95C533.409 230.129 537.286 245.358 541.172 245.106Z" fill="#FFB27D"/>
    <path d="M534.294 221.914C534.294 221.914 543.708 230.143 550.146 230.847C556.584 231.55 559.037 229.499 559.037 229.499C559.037 229.499 555.262 226.319 553.013 221.215C552.35 219.71 550.934 218.671 549.297 218.518C544.699 218.088 535.98 217.846 534.294 221.914Z" fill="#233862"/>
    <path d="M540.219 221.224C540.219 221.224 537.029 224.266 536.015 226.531C535.036 228.717 534.71 233.96 535.463 236.048C535.463 236.048 530.594 226.414 533.421 221.769C536.42 216.845 540.219 221.224 540.219 221.224Z" fill="#233862"/>
    <path d="M531.461 275.988C531.698 305.942 531.417 299.681 534.673 302.546C535.458 303.236 537.674 303.659 540.594 303.873C549.773 304.547 565.928 303.148 566.554 301.455C568.714 295.597 567.231 293.763 569.062 284.784C569.253 283.829 569.488 282.796 569.764 281.671C571.281 275.506 572.73 273.415 567.572 263.458C562.895 254.438 558.021 247.109 557.576 247.369C545.015 254.706 544.05 248.458 544.05 248.458C544.05 248.458 531.345 261.377 531.461 275.988Z" fill="#F9DDBF"/>
    <path d="M498.859 352.99L508.292 378.935C508.292 378.935 510.899 379.205 513.403 378.504C515.708 377.856 518.361 376.134 518.361 376.134C518.361 376.134 515.887 348.331 511.018 332.346L498.859 352.99Z" fill="#2B478B"/>
    <path d="M544.05 248.456C544.05 248.456 531.164 250.548 529.613 256.078C528.063 261.609 518.939 294.124 518.939 294.124C518.939 294.124 525.474 295.346 528.518 292.344C531.562 289.343 539.233 264.375 539.233 264.375L544.05 248.456Z" fill="#F9DDBF"/>
    <path d="M540.593 303.873C549.773 304.548 565.928 303.148 566.554 301.455C568.714 295.598 567.231 293.763 569.062 284.784L564.72 272.28C564.72 272.28 565.355 286.174 561.233 289.799C557.115 293.424 544.411 296.733 542.399 299.772C541.428 301.23 540.786 302.695 540.593 303.873Z" fill="#F2CCAA"/>
    <path d="M551.157 298.105C551.157 298.105 542.111 296.024 540.643 296.818C539.175 297.612 535.581 300.515 535.127 301.53C534.672 302.546 538.387 300.78 539.594 300.465C540.375 300.262 542.423 300.989 543.436 301.335C547.703 302.791 550.328 302.076 550.328 302.076L551.157 298.105Z" fill="#FFB27D"/>
    <path d="M557.583 247.363C557.583 247.363 569.744 248.198 573.914 254.102C579.784 262.412 591.296 297.734 584.523 302.387C576.895 307.626 549.967 303.528 549.967 303.528C549.967 303.528 549.099 299.329 550.362 297.309C551.624 295.29 571.929 292.157 572.871 291.227C573.814 290.298 561.299 272.891 561.319 270.083C561.34 267.275 557.583 247.363 557.583 247.363Z" fill="#F9DDBF"/>
    <path d="M540.187 299.337C540.187 299.337 538.271 301.772 537.646 302.06C537.022 302.348 536.621 302.272 536.621 302.272L537.916 299.979L540.187 299.337Z" fill="#FFB27D"/>
    <path d="M540.643 296.818L535.105 299.459C535.105 299.459 535.337 299.845 536.017 299.819C536.697 299.792 538.416 299.178 538.416 299.178L540.643 296.818Z" fill="#FFB27D"/>
    <path d="M538.828 306.013L495.167 305.705L482.263 272.951L525.857 273.258L538.828 306.013Z" fill="#F99746"/>
    <path d="M494.664 304.428L552.319 304.836L552.31 306.108L495.167 305.705L494.664 304.428Z" fill="#ED7D2B"/>
    <path d="M506.304 289.452C505.983 288.302 506.653 287.376 507.801 287.384C508.949 287.392 510.14 288.331 510.461 289.481C510.782 290.632 510.112 291.558 508.964 291.55C507.816 291.542 506.625 290.602 506.304 289.452Z" fill="white"/>
    <path d="M273.487 409.077L273.482 435.448L406.14 435.474L406.145 409.103L273.487 409.077Z" fill="#C65447"/>
    <path d="M273.481 435.449L253.984 427.109L242.644 422.258L254.252 417.297L273.488 409.076C273.488 409.076 276.055 415.498 276.094 421.536C276.153 431.013 273.481 435.449 273.481 435.449Z" fill="#FCECDB"/>
    <path d="M421.566 417.854L421.564 426.191C421.563 431.319 417.405 435.476 412.276 435.475L406.14 435.474L406.145 409.102L412.819 409.103C417.65 409.104 421.567 413.022 421.566 417.854Z" fill="#FCECDB"/>
    <path d="M254.251 417.297C254.734 419.962 255.154 424.045 253.984 427.109L242.644 422.258L254.251 417.297Z" fill="#2B478B"/>
    <path d="M302.003 271.767C302.003 271.767 304.379 282.077 311.306 282.077C317.243 282.077 325.387 268.657 325.387 268.657L302.003 271.767Z" fill="#F99746"/>
    <path d="M381.525 424.052L377.074 427.112C377.074 427.112 355.672 404.3 350.505 382.433C349.584 378.529 349.211 374.679 349.606 371.025C349.606 371.025 349.293 370.035 348.746 368.284C348.722 368.207 348.698 368.129 348.674 368.05C348.434 367.282 348.147 366.378 347.828 365.355C346.791 362.051 345.366 357.529 343.741 352.381C340.001 340.534 331.446 313.817 327.79 302.703L354.065 293.197C354.065 293.197 357.049 300.002 361.338 318.5C361.998 320.914 362.66 323.584 363.278 326.493C363.979 329.788 364.632 333.39 365.177 337.282C366.098 343.876 366.714 351.293 366.752 359.43C366.767 362.74 366.685 366.172 366.489 369.713C366.346 372.31 366.731 375.77 367.455 379.706C370.766 397.702 381.525 424.052 381.525 424.052Z" fill="#2B478B"/>
    <path d="M395.523 435.045H374.28C374.28 435.045 373.486 431.658 374.881 429.352C376.115 427.312 375.642 426.15 374.728 424.462C375.69 424.856 376.935 425.214 378.306 425.136C379.364 425.075 380.483 424.595 381.465 424.025C382.379 425.067 386.294 429.504 387.517 430.383C388.905 431.38 395.095 431.025 395.523 435.045Z" fill="#233862"/>
    <path d="M365.177 337.282L348.674 368.05C348.434 367.281 348.147 366.378 347.828 365.355C346.791 362.05 345.366 357.529 343.741 352.381C340.001 340.534 331.446 313.816 327.79 302.703L354.065 293.196C354.065 293.196 357.049 300.002 361.338 318.5C361.998 320.914 362.66 323.584 363.278 326.493C363.979 329.787 364.633 333.39 365.177 337.282Z" fill="#233862"/>
    <path d="M327.362 428.396C327.362 428.396 325.892 432.003 327.276 435.045H338.831C338.831 435.045 339.071 432.302 334.878 429.121C331.702 426.712 327.362 428.396 327.362 428.396Z" fill="#233862"/>
    <path d="M339.937 193.524C339.944 192.949 340.24 186.747 349.663 186.196C349.663 186.196 345.038 186.861 344.286 188.919C344.286 188.919 347.383 186.324 349.974 187.072C352.566 187.82 354.184 192.289 354.235 193.771C354.286 195.252 352.973 200.063 351.35 200.509C350.736 200.678 350.023 200.654 349.374 200.559C349.824 201.227 350.268 201.964 350.695 202.79C354.644 210.424 351.237 219.416 348.031 218.659C345.975 218.173 344.725 221.737 344.725 221.737L324.952 204.732C324.952 204.732 331.879 189.47 339.937 193.524Z" fill="#2C3A64"/>
    <path d="M327.507 245.194C329.7 246.715 332.449 247.969 335.9 248.766C348.836 251.754 353.793 240.821 355.655 233.316C353.891 232.307 352.231 232.084 351.272 231.97C350.338 231.859 349.354 231.786 348.54 231.746C347.087 230.633 344.923 226.08 344.444 219.01L343.835 219.173L333.64 221.964C333.64 221.964 334.108 225.204 334.336 228.267C334.513 230.665 334.541 232.955 334.087 233.516C333.291 233.688 332.814 233.801 332.814 233.801C332.814 233.801 332.813 233.805 332.809 233.811C332.672 234.035 329.714 238.899 327.507 245.194Z" fill="#FFB27D"/>
    <path d="M333.64 221.965C333.64 221.965 334.108 225.203 334.335 228.269C340.111 227.691 342.792 222.192 343.835 219.175L333.64 221.965Z" fill="#ED985F"/>
    <path d="M333.521 226.829C333.521 226.829 346.82 223.411 344.564 215.163C342.308 206.914 342.506 200.917 333.92 202.75C325.333 204.583 324.551 208.18 324.634 211.117C324.718 214.053 330.004 227.505 333.521 226.829Z" fill="#FFB27D"/>
    <path d="M323.769 206.424C325.135 203.381 326.831 203.501 327.902 204.009C334.046 198.043 340.323 202.645 340.323 202.645C342.834 208.318 348.031 210.536 348.031 210.536C348.031 210.536 346.028 212.689 340.072 212.786C338.253 212.816 336.404 212.025 334.713 210.914C338 214.07 341.811 215.947 341.811 215.947C334.323 214.7 329.116 206.191 328.582 205.287C327.973 206.235 326.813 208.249 326.752 209.928C326.669 212.209 327.559 216.613 326.259 216.812C326.259 216.812 321.722 210.986 323.769 206.424Z" fill="#2C3A64"/>
    <path d="M329.696 233.115C329.696 233.115 352.031 227.692 361.742 235.702L356.889 303.388L313.209 292.835C313.209 292.835 314.438 288.552 322.814 277.163C331.19 265.774 327.546 249.069 329.696 233.115Z" fill="#FFB27D"/>
    <path d="M342.717 295.853C342.717 295.853 342.691 296.082 342.646 296.52C342.626 296.707 342.6 296.935 342.572 297.2C342.384 298.954 342.028 302.32 341.569 306.697C340.371 318.177 338.49 336.613 337.208 351.166C336.206 362.544 335.569 371.55 335.913 372.995C336.947 377.347 335.913 429.363 335.913 429.363C332.2 431.143 326.572 429.363 326.572 429.363C326.572 429.363 316.683 382.489 318.067 375.974C319.452 369.459 317.141 363.897 317.141 363.897C309.463 328.14 310.304 308.323 311.829 298.835C312.272 296.076 312.774 294.191 313.142 293.042C313.453 292.065 313.668 291.618 313.668 291.618C330.604 287.062 342.717 295.853 342.717 295.853Z" fill="#2B478B"/>
    <path d="M364.754 255.007C363.676 263.15 359.362 273.114 357.821 278.478C357.821 278.478 360.397 297.099 357.938 302.212C357.659 302.795 357.313 303.203 356.89 303.387C347.782 307.354 312.312 303.501 310.815 292.06C310.271 287.902 324.325 273.278 325.144 271.504C325.484 270.77 325.846 268.391 324.199 263.46C321.863 270.662 308.972 268.591 308.972 268.591C310.485 266.002 314.254 248.091 318.463 240.005C321.628 233.928 330.077 233.047 330.077 233.047C330.077 233.047 333.593 238.625 342.098 237.834C350.602 237.043 352.158 231.837 352.158 231.837C352.158 231.837 359.7 232.84 362.024 234.715C362.427 235.04 366.168 244.339 364.754 255.007Z" fill="#F99746"/>
    <path d="M357.821 278.478C357.821 278.478 360.397 297.099 357.938 302.212C351.302 298.881 346.073 289.871 347.28 279.834C348.173 272.414 349.499 270.722 353.469 266.476C356.385 263.356 363.128 263.181 362.6 264.665C361.027 269.085 358.635 275.645 357.821 278.478Z" fill="#ED7D2B"/>
    <path d="M330.121 256.457L345.329 280.856H319.452L304.962 256.985L330.121 256.457Z" fill="#1C468A"/>
    <path d="M344.539 279.631L344.801 278.779L330.41 255.689L330.121 256.457L344.539 279.631Z" fill="#EFDECE"/>
    <path d="M330.409 255.689L306.032 256.383L304.962 256.985L330.121 256.457L330.409 255.689Z" fill="#FCECDB"/>
    <path d="M304.962 256.985L291.287 249.583L307.228 274.616L319.453 280.856L304.962 256.985Z" fill="#163560"/>
    <path d="M377.332 274.083C375.868 274.752 372.108 279.181 370.765 279.631C364.731 281.65 339.051 276.277 339.051 276.277L339.846 271.779C339.846 271.779 365.051 272.448 367.822 271.707C368.344 271.567 371.068 267.307 372.115 266.695L377.332 274.083Z" fill="#FFB27D"/>
    <path d="M339.848 271.778C339.848 271.778 336.808 269.305 334.754 269.864C332.701 270.424 329.678 273.021 328.556 273.636C327.434 274.251 324.386 276.451 325.931 277.781C327.476 279.111 332.286 277.969 334.192 276.949C336.097 275.93 339.053 276.278 339.053 276.278L339.848 271.778Z" fill="#FFB27D"/>
    <path d="M335.337 269.783C335.337 269.783 331.642 269.343 330.633 269.363C329.625 269.383 329.899 269.604 330.456 270.387C331.012 271.17 332.936 271.469 333.024 271.743C333.112 272.017 335.337 269.783 335.337 269.783Z" fill="#FFB27D"/>
    <path d="M352.158 231.837C352.158 231.837 363.112 233.136 366.128 237.834C369.942 243.773 378.942 267.429 378.652 273.39C378.652 273.39 372.072 284.589 349.507 282.797C349.507 282.797 347.159 274.505 351.906 271.767C351.906 271.767 363.495 269.706 364.831 268.53L355.381 251.357L352.158 231.837Z" fill="#F99746"/>
    <path d="M308.467 265.904C308.127 264.524 305.118 265.386 304.104 266.18C303.857 266.373 303.592 266.702 303.332 267.087C303.301 266.856 303.273 266.635 303.258 266.462C303.201 265.814 302.446 264.653 302.258 265.522C302.071 266.392 301.762 270.045 301.762 270.045C301.726 272.988 303.617 274.201 304.832 273.244C306.048 272.286 308.806 267.284 308.467 265.904Z" fill="#FFB27D"/>
    <path d="M710.56 437.396H20.5777C20.0889 437.396 19.6888 436.996 19.6888 436.507V435.925C19.6888 435.436 20.0887 435.036 20.5777 435.036H710.56C711.048 435.036 711.448 435.436 711.448 435.925V436.507C711.448 436.996 711.049 437.396 710.56 437.396Z" fill="#2E3552"/>
    </svg>