<svg width="16" height="12" viewBox="0 0 16 12" fill="none" xmlns="http://www.w3.org/2000/svg">
<path d="M12.2115 7.31846L12.632 6.89277L12.0336 6.89277L1.2655 6.89277C1.03536 6.89277 0.813789 6.79985 0.649765 6.63307C0.485602 6.46615 0.392647 6.23888 0.392647 6.00104C0.392647 5.76321 0.485602 5.53594 0.649765 5.36902C0.813789 5.20224 1.03536 5.10932 1.2655 5.10932L12.0336 5.10932L12.632 5.10932L12.2115 4.68363L9.62893 2.06907L9.62859 2.06873C9.54658 1.98602 9.48126 1.8874 9.43662 1.77843C9.39197 1.66946 9.36893 1.55243 9.36893 1.43413C9.36893 1.31584 9.39197 1.19881 9.43662 1.08984C9.48126 0.980869 9.54658 0.882242 9.62859 0.799534L9.63003 0.798072C9.71137 0.714681 9.80792 0.64872 9.91398 0.603787C10.02 0.558859 10.1336 0.535785 10.2483 0.535785C10.3629 0.535785 10.4765 0.558859 10.5826 0.603787C10.6887 0.64872 10.7852 0.714681 10.8665 0.798074L10.8673 0.798804L15.3566 5.36365C15.4355 5.4479 15.4976 5.54728 15.5391 5.65626L15.5391 5.65628L15.5409 5.66084C15.6289 5.87873 15.6289 6.12336 15.5409 6.34125L15.5409 6.34123L15.5391 6.34583C15.4976 6.45482 15.4355 6.5542 15.3566 6.63845L10.8673 11.2033C10.7024 11.3709 10.4796 11.4644 10.2483 11.4644C10.0169 11.4644 9.79419 11.3709 9.62931 11.2033C9.46428 11.0355 9.37084 10.807 9.37084 10.568C9.37084 10.329 9.46419 10.1007 9.62906 9.93288C9.62914 9.9328 9.62922 9.93271 9.62931 9.93263L12.2115 7.31846Z" fill="#455FE8" stroke="white" stroke-width="0.5"/>
</svg>
