<svg width="16" height="12" viewBox="0 0 16 12" fill="none" xmlns="http://www.w3.org/2000/svg">
<path d="M14.7345 4.85723H3.96638L6.54894 2.24267C6.76037 2.02768 6.87916 1.73609 6.87916 1.43204C6.87916 1.128 6.76037 0.836408 6.54894 0.621417C6.3375 0.406425 6.05073 0.285645 5.75171 0.285645C5.4527 0.285645 5.16593 0.406425 4.95449 0.621417L0.463094 5.18833C0.360869 5.29691 0.280737 5.42495 0.227295 5.5651C0.11499 5.84307 0.11499 6.15484 0.227295 6.43281C0.280737 6.57296 0.360869 6.701 0.463094 6.80958L4.95449 11.3765C5.05887 11.4835 5.18306 11.5684 5.31989 11.6264C5.45672 11.6844 5.60348 11.7142 5.75171 11.7142C5.89994 11.7142 6.0467 11.6844 6.18353 11.6264C6.32036 11.5684 6.44455 11.4835 6.54894 11.3765C6.65418 11.2704 6.73771 11.1441 6.79472 11.0049C6.85172 10.8658 6.88107 10.7166 6.88107 10.5659C6.88107 10.4151 6.85172 10.2659 6.79472 10.1268C6.73771 9.98765 6.65418 9.86138 6.54894 9.75524L3.96638 7.14068H14.7345C15.0323 7.14068 15.3179 7.0204 15.5285 6.80628C15.7391 6.59216 15.8574 6.30176 15.8574 5.99896C15.8574 5.69615 15.7391 5.40575 15.5285 5.19163C15.3179 4.97752 15.0323 4.85723 14.7345 4.85723Z" fill="#B2BAC9"/>
</svg>

