<svg width="46" height="46" viewBox="0 0 46 46" fill="none" xmlns="http://www.w3.org/2000/svg">
    <path d="M16.4053 35.5932C16.1715 35.4357 15.8849 35.3772 15.6082 35.4304C15.3314 35.4837 15.087 35.6444 14.9283 35.8773C14.6428 36.3003 14.2672 36.6549 13.8285 36.9157C13.3898 37.1765 12.8989 37.3371 12.3909 37.3859C11.8829 37.4347 11.3703 37.3706 10.89 37.1981C10.4097 37.0256 9.97344 36.749 9.61255 36.3882C9.25165 36.0273 8.97503 35.5911 8.80249 35.1108C8.62995 34.6305 8.56577 34.1179 8.61455 33.6099C8.66332 33.1019 8.82384 32.6109 9.08461 32.1722C9.34538 31.7335 9.69994 31.3579 10.1229 31.0723C10.3567 30.9141 10.518 30.6694 10.5714 30.3923C10.6248 30.1151 10.5659 29.828 10.4076 29.5943C10.2494 29.3605 10.0048 29.1992 9.72759 29.1458C9.4504 29.0924 9.16335 29.1513 8.92959 29.3095C8.24697 29.7709 7.67482 30.3776 7.25408 31.086C6.83334 31.7944 6.57443 32.5871 6.49588 33.4073C6.41733 34.2275 6.52108 35.0549 6.79972 35.8303C7.07835 36.6057 7.52496 37.3099 8.10759 37.8925C8.69022 38.4752 9.39445 38.9217 10.1699 39.2003C10.9453 39.4789 11.7727 39.5827 12.5929 39.5041C13.4131 39.4255 14.2058 39.1666 14.9142 38.7458C15.6226 38.325 16.2292 37.7529 16.6906 37.0702C16.8485 36.8365 16.9071 36.5496 16.8536 36.2726C16.8001 35.9957 16.6389 35.7513 16.4053 35.5932L16.4053 35.5932Z" fill="#455FE8"/>
    <path d="M42.3901 6.9201L44.0078 5.30244C44.4468 4.86346 44.6934 4.26809 44.6934 3.64728C44.6934 3.02647 44.4468 2.43109 44.0078 1.99212C43.5688 1.55314 42.9734 1.30653 42.3526 1.30653C41.7318 1.30653 41.1364 1.55314 40.6975 1.99211L39.0798 3.60978C36.2893 1.6067 32.8779 0.660151 29.4543 0.939002C26.0306 1.21785 22.8174 2.70396 20.3878 5.13221L11.9785 13.5415L3.87147 14.6019L0.891123 17.5823L28.4176 45.1088L31.398 42.1284L32.4584 34.0214L40.8677 25.6121C43.2959 23.1825 44.782 19.9693 45.0609 16.5456C45.3397 13.122 44.3932 9.71059 42.3901 6.92009L42.3901 6.9201ZM30.6278 7.67905C29.6171 7.67627 28.6158 7.87395 27.682 8.26066C26.7482 8.64736 25.9004 9.21541 25.1875 9.93193L22.6947 12.4248C22.5815 12.5382 22.447 12.6282 22.299 12.6896C22.1509 12.7511 21.9923 12.7827 21.832 12.7828C21.6717 12.7829 21.513 12.7513 21.365 12.6901C21.2169 12.6288 21.0823 12.5389 20.969 12.4256C20.8557 12.3122 20.7658 12.1777 20.7045 12.0296C20.6432 11.8815 20.6117 11.7228 20.6118 11.5626C20.6118 11.4023 20.6435 11.2436 20.7049 11.0956C20.7664 10.9476 20.8563 10.8131 20.9698 10.6999L23.4626 8.20702C24.4013 7.26313 25.518 6.51489 26.7479 6.00562C27.9778 5.49635 29.2966 5.23618 30.6278 5.24018C30.9512 5.24018 31.2613 5.36866 31.49 5.59734C31.7187 5.82603 31.8472 6.1362 31.8472 6.45961C31.8472 6.78303 31.7187 7.09319 31.49 7.32188C31.2613 7.55057 30.9512 7.67904 30.6278 7.67904V7.67905Z" fill="#455FE8"/>
</svg>  