<svg width="626" height="206" viewBox="0 0 626 206" fill="none" xmlns="http://www.w3.org/2000/svg">
    <g clip-path="url(#clip0_127_14)">
    <path d="M124.541 104.7C126.41 104.077 128.144 103.057 130.241 103.138C133.735 103.277 136.635 105.4 137.708 108.794C138.735 112.049 137.635 115.977 134.685 117.64C123.445 123.969 111.888 129.316 98.4314 127.889C92.4928 127.259 86.8476 125.681 81.4843 123.064C60.1315 112.649 38.7439 102.311 17.4413 91.7908C6.11625 86.2003 0.00772985 76.9138 7.31785e-06 64.2213C-0.00771521 51.5287 6.09695 42.25 17.4066 36.6286C38.6783 26.0508 60.0002 15.5735 81.3607 5.17746C95.6127 -1.75841 110 -1.70815 124.248 5.23159C145.431 15.5542 166.552 26.0044 187.7 36.3966C198.886 41.8943 205.122 50.8676 205.67 63.3243C206.165 74.5671 201.585 83.5714 192.183 89.908C188.264 92.5486 183.534 91.64 180.927 87.9517C178.363 84.3175 179.101 79.3534 183.078 76.7631C189.735 72.4253 191.476 63.6066 187.646 57.0109C186.183 54.4941 184.117 52.6035 181.51 51.3238C162.32 41.8981 143.126 32.4763 123.931 23.0584C123.645 22.9192 123.333 22.8303 123.032 22.7182C120.46 21.4153 117.95 19.9616 115.305 18.8366C107.32 15.4382 99.1226 15.0323 91.1529 18.5195C82.9825 22.0957 75.0514 26.2325 67.0354 30.1566C52.8453 37.108 38.6629 44.0825 24.4843 51.0609C18.9588 53.7827 15.9934 58.1553 16.0629 64.4185C16.1324 70.6236 19.3025 74.8068 24.7044 77.4667C30.5812 80.3586 36.489 83.2002 42.3774 86.0689C57.6796 93.5306 72.9856 100.981 88.2724 108.465C93.2148 110.886 98.4121 112.142 103.899 111.968C111.529 111.736 118.074 108.311 124.541 104.7Z" fill="#455FE8"/>
    <path d="M124.541 104.699C118.077 108.31 111.529 111.736 103.899 111.976C98.412 112.15 93.2148 110.893 88.2724 108.473C72.9856 100.988 57.6796 93.5379 42.3774 86.0762C36.4889 83.2037 30.5851 80.366 24.7044 77.4741C19.3024 74.8142 16.1323 70.631 16.0628 64.4258C15.9933 58.1627 18.9626 53.79 24.4843 51.0683C38.6628 44.086 52.8414 37.1153 67.0354 30.164C75.0514 26.236 82.9824 22.1031 91.1529 18.5269C99.1225 15.0396 107.32 15.4417 115.305 18.8439C117.95 19.969 120.46 21.4227 123.031 22.7255C121.834 23.8197 120.402 22.8841 119.07 23.1006C116.869 23.4524 114.842 24.0516 112.884 25.0298C100.876 31.03 88.8786 37.0535 76.8623 43.0344C65.7689 48.5591 54.6523 54.0336 43.5512 59.5467C40.7711 60.927 39.7556 62.9992 40.4776 65.605C40.8946 67.1089 41.9951 67.8976 43.3195 68.5355C55.7451 74.5397 68.1474 80.5863 80.5769 86.5788C92.1375 92.15 103.706 97.7018 115.309 103.18C117.861 104.382 120.603 105.059 123.487 104.41C123.873 104.317 124.267 104.332 124.541 104.699Z" fill="#CDE0F1"/>
    <path d="M102.544 205.981C95.7748 206.244 88.9442 204.048 82.16 201.581C71.8504 197.831 61.5292 194.116 51.1888 190.454C38.74 186.047 31.1256 177.464 28.7007 164.431C28.2915 162.235 28.2219 159.95 28.2026 157.704C28.1293 148.696 28.1177 139.688 28.137 130.676C28.1447 128.124 28.6505 125.669 30.5657 123.771C32.9172 121.436 35.678 120.655 38.8404 121.803C41.9449 122.928 43.7404 125.461 43.806 128.874C43.9991 138.973 44.1265 149.075 44.3196 159.173C44.3813 162.433 45.0802 165.525 46.9838 168.282C49.0612 171.286 51.7293 173.494 55.162 174.731C67.5953 179.212 80.0131 183.723 92.4734 188.127C99.694 190.679 106.961 190.52 114.193 188.042C126.935 183.673 139.681 179.308 152.431 174.967C155.13 174.046 157.574 172.732 159.903 171.07C164.884 167.509 171.432 170.231 172.49 176.254C173.043 179.389 171.83 181.922 169.44 183.913C166.548 186.322 163.316 188.17 159.764 189.387C145.323 194.34 130.878 199.281 116.406 204.141C112.123 205.575 107.648 206.05 102.544 205.981Z" fill="#455FE8"/>
    <path d="M170.236 125.093C170.236 131.527 170.212 137.96 170.247 144.393C170.266 147.633 169.282 150.366 166.432 152.125C163.83 153.73 161.084 153.854 158.378 152.346C155.625 150.811 154.211 148.41 154.207 145.251C154.192 133.479 154.099 121.703 154.227 109.93C154.316 101.854 150.894 96.2674 143.585 92.7646C132.017 87.2206 120.557 81.4561 109.065 75.7574C108.058 75.2587 107.166 75.0654 105.996 75.3476C99.5898 76.8941 93.3269 73.2096 91.5507 66.9658C89.8054 60.8457 93.2419 54.2926 99.2655 52.2512C105.382 50.179 112.023 53.2835 114.351 59.4307C114.776 60.5519 115.502 61.0235 116.433 61.4836C128.167 67.2674 139.901 73.055 151.628 78.8581C161.841 83.9111 168.004 92.0262 169.857 103.308C170.178 105.264 170.197 107.282 170.212 109.269C170.266 114.543 170.236 119.82 170.236 125.093Z" fill="#3F4A59"/>
    <path d="M306.206 176.923C301.889 176.923 298.808 174.699 296.958 170.253L246.094 53.7664C244.735 50.6812 244.8 48.2416 246.279 46.4516C247.758 44.6616 249.793 43.7646 252.384 43.7646C254.604 43.7646 256.295 44.2904 257.469 45.3382C258.639 46.3898 259.658 47.9014 260.52 49.877L306.391 156.362L352.078 49.6915C352.939 47.7197 353.989 46.2351 355.221 45.2454C356.453 44.2595 358.179 43.7646 360.399 43.7646C362.99 43.7646 364.897 44.7235 366.133 46.6333C367.365 48.5509 367.365 50.9248 366.133 53.7625L315.268 170.25C314.28 172.473 313.11 174.139 311.755 175.248C310.399 176.366 308.55 176.923 306.206 176.923Z" fill="#3F4A59"/>
    <path d="M393.509 176.923C388.451 176.923 385.926 174.27 385.926 168.958V51.7289C385.926 46.4207 388.451 43.7646 393.509 43.7646C398.564 43.7646 401.093 46.4207 401.093 51.7289V168.958C401.093 174.266 398.564 176.923 393.509 176.923Z" fill="#3F4A59"/>
    <path d="M433.273 175.627C429.45 175.627 427.014 174.116 425.967 171.088C424.917 168.065 425.813 164.64 428.651 160.812L501.524 58.2163H432.164C427.357 58.2163 424.952 55.9932 424.952 51.551C424.952 47.2325 427.357 45.0675 432.164 45.0675H512.436C516.382 45.0675 518.877 46.5482 519.927 49.5136C520.974 52.475 520.082 55.9352 517.244 59.8864L444.37 162.482H516.321C521.132 162.482 523.534 164.644 523.534 168.966C523.534 173.412 521.128 175.631 516.321 175.631H433.273V175.627Z" fill="#3F4A59"/>
    <path d="M550.721 175.627C545.172 175.627 542.396 172.847 542.396 167.292V53.3989C542.396 47.8432 545.172 45.0635 550.721 45.0635H619.525C623.838 45.0635 625.996 47.1628 625.996 51.3614C625.996 55.6838 623.838 57.845 619.525 57.845H557.192V103.033H615.64C619.953 103.033 622.115 105.132 622.115 109.33C622.115 113.653 619.957 115.814 615.64 115.814H557.192V162.853H619.525C623.838 162.853 625.996 164.953 625.996 169.151C625.996 173.474 623.838 175.635 619.525 175.635H550.721V175.627Z" fill="#3F4A59"/>
    </g>
    <defs>
        <clipPath id="clip0_127_14">
            <rect width="626" height="206" fill="white"/>
        </clipPath>
    </defs>
</svg> 