<svg width="120" height="145" viewBox="0 0 120 145" fill="none" xmlns="http://www.w3.org/2000/svg">
<g opacity="0.6" filter="url(#filter0_d_0_1)">
<ellipse cx="70.1882" cy="62.3034" rx="38.1882" ry="37.7389" fill="#F6F7FF"/>
</g>
<g filter="url(#filter1_d_0_1)">
<ellipse cx="70.1882" cy="62.3034" rx="30.1013" ry="29.652" fill="#F9F9F9"/>
</g>
<path d="M73.2272 62.2304C73.5086 62.1366 73.7696 61.9829 74.0853 61.9952C74.6115 62.0161 75.0481 62.3357 75.2097 62.8468C75.3644 63.337 75.1987 63.9285 74.7545 64.1788C73.062 65.1318 71.3219 65.9369 69.2957 65.7221C68.4015 65.6272 67.5515 65.3897 66.7439 64.9955C63.5288 63.4272 60.3084 61.8706 57.1008 60.2866C55.3956 59.4448 54.4758 58.0465 54.4746 56.1353C54.4734 54.2241 55.3926 52.827 57.0956 51.9805C60.2985 50.3878 63.509 48.8102 66.7253 47.2448C68.8713 46.2004 71.0376 46.208 73.183 47.2529C76.3725 48.8072 79.5528 50.3808 82.7372 51.9456C84.4215 52.7734 85.3604 54.1246 85.443 56.0002C85.5174 57.6931 84.8279 59.0489 83.4122 60.0031C82.822 60.4007 82.1098 60.2639 81.7174 59.7085C81.3313 59.1613 81.4424 58.4138 82.0412 58.0238C83.0436 57.3706 83.3058 56.0427 82.729 55.0496C82.5087 54.6706 82.1976 54.3859 81.8052 54.1933C78.9156 52.774 76.0254 51.3553 73.1353 49.9372C73.0923 49.9162 73.0452 49.9028 72.9998 49.886C72.6126 49.6898 72.2347 49.4709 71.8364 49.3015C70.6341 48.7898 69.3998 48.7287 68.1998 49.2537C66.9695 49.7922 65.7753 50.4151 64.5683 51.006C62.4317 52.0527 60.2962 53.1029 58.1613 54.1537C57.3293 54.5635 56.8828 55.2219 56.8932 56.165C56.9037 57.0993 57.381 57.7292 58.1944 58.1297C59.0793 58.5652 59.9689 58.993 60.8555 59.425C63.1596 60.5485 65.4643 61.6703 67.766 62.7974C68.5102 63.1618 69.2928 63.351 70.119 63.3248C71.2678 63.2899 72.2533 62.7741 73.2272 62.2304Z" fill="#455FE8"/>
<path d="M73.2272 62.2301C72.2539 62.7738 71.2678 63.2896 70.119 63.3257C69.2928 63.3519 68.5102 63.1627 67.7661 62.7982C65.4643 61.6712 63.1596 60.5494 60.8555 59.4259C59.9689 58.9933 59.0799 58.5661 58.1944 58.1306C57.381 57.7301 56.9037 57.1002 56.8932 56.1659C56.8828 55.2228 57.3299 54.5644 58.1613 54.1546C60.2962 53.1032 62.4311 52.0536 64.5683 51.0069C65.7753 50.4154 66.9695 49.7931 68.1998 49.2546C69.3998 48.7295 70.6341 48.7901 71.8364 49.3024C72.2347 49.4718 72.6126 49.6907 72.9998 49.8868C72.8196 50.0516 72.6039 49.9107 72.4033 49.9433C72.0719 49.9963 71.7667 50.0865 71.4719 50.2338C69.6637 51.1373 67.8573 52.0443 66.048 52.9449C64.3776 53.7767 62.7038 54.6011 61.0322 55.4312C60.6136 55.639 60.4607 55.9511 60.5695 56.3434C60.6322 56.5699 60.7979 56.6886 60.9974 56.7847C62.8683 57.6888 64.7358 58.5992 66.6073 59.5016C68.348 60.3404 70.0899 61.1764 71.837 62.0013C72.2213 62.1823 72.6341 62.2842 73.0684 62.1864C73.1266 62.1724 73.1859 62.1748 73.2272 62.2301Z" fill="#CDE0F1"/>
<path d="M69.9153 77.4804C68.8961 77.5199 67.8676 77.1893 66.8461 76.8179C65.2937 76.2532 63.7397 75.6938 62.1827 75.1425C60.3082 74.4788 59.1617 73.1865 58.7966 71.224C58.735 70.8934 58.7245 70.5493 58.7216 70.2111C58.7105 68.8547 58.7088 67.4983 58.7117 66.1413C58.7129 65.7571 58.789 65.3874 59.0774 65.1016C59.4315 64.75 59.8472 64.6324 60.3233 64.8053C60.7908 64.9747 61.0611 65.356 61.071 65.87C61.1001 67.3906 61.1193 68.9118 61.1484 70.4323C61.1577 70.9231 61.2629 71.3888 61.5495 71.8039C61.8623 72.2562 62.2641 72.5886 62.7809 72.7749C64.653 73.4496 66.5228 74.1289 68.399 74.792C69.4862 75.1762 70.5804 75.1524 71.6694 74.7792C73.588 74.1214 75.5072 73.4641 77.427 72.8104C77.8334 72.6718 78.2015 72.4739 78.552 72.2236C79.3021 71.6874 80.2881 72.0973 80.4474 73.0042C80.5306 73.4764 80.348 73.8577 79.9881 74.1575C79.5526 74.5201 79.066 74.7984 78.5311 74.9818C76.3567 75.7275 74.1816 76.4715 72.0025 77.2033C71.3578 77.4192 70.6839 77.4908 69.9153 77.4804Z" fill="#455FE8"/>
<path d="M80.1076 65.301C80.1076 66.2697 80.1041 67.2383 80.1093 68.207C80.1123 68.6949 79.964 69.1064 79.5349 69.3713C79.1431 69.6129 78.7297 69.6315 78.3221 69.4045C77.9076 69.1734 77.6948 68.8119 77.6942 68.3363C77.6919 66.5636 77.6779 64.7904 77.6971 63.0178C77.7105 61.8017 77.1954 60.9605 76.0948 60.4331C74.3529 59.5983 72.6273 58.7303 70.897 57.8722C70.7453 57.7971 70.611 57.768 70.4348 57.8105C69.4703 58.0434 68.5272 57.4886 68.2598 56.5484C67.997 55.6269 68.5144 54.6401 69.4214 54.3328C70.3424 54.0207 71.3424 54.4882 71.693 55.4138C71.7569 55.5826 71.8662 55.6536 72.0063 55.7229C73.7732 56.5938 75.5401 57.4653 77.3058 58.3391C78.8436 59.0999 79.7716 60.3219 80.0506 62.0206C80.0989 62.3151 80.1018 62.619 80.1041 62.9182C80.1123 63.7123 80.1076 64.5069 80.1076 65.301Z" fill="#3F4A59"/>
<defs>
<filter id="filter0_d_0_1" x="0" y="0.564453" width="144.376" height="143.478" filterUnits="userSpaceOnUse" color-interpolation-filters="sRGB">
<feFlood flood-opacity="0" result="BackgroundImageFix"/>
<feColorMatrix in="SourceAlpha" type="matrix" values="0 0 0 0 0 0 0 0 0 0 0 0 0 0 0 0 0 0 127 0" result="hardAlpha"/>
<feOffset dx="2" dy="10"/>
<feGaussianBlur stdDeviation="17"/>
<feColorMatrix type="matrix" values="0 0 0 0 0.0599965 0 0 0 0 0.0750638 0 0 0 0 0.154167 0 0 0 0.15 0"/>
<feBlend mode="normal" in2="BackgroundImageFix" result="effect1_dropShadow_0_1"/>
<feBlend mode="normal" in="SourceGraphic" in2="effect1_dropShadow_0_1" result="shape"/>
</filter>
<filter id="filter1_d_0_1" x="8.08691" y="8.65137" width="128.203" height="127.304" filterUnits="userSpaceOnUse" color-interpolation-filters="sRGB">
<feFlood flood-opacity="0" result="BackgroundImageFix"/>
<feColorMatrix in="SourceAlpha" type="matrix" values="0 0 0 0 0 0 0 0 0 0 0 0 0 0 0 0 0 0 127 0" result="hardAlpha"/>
<feOffset dx="2" dy="10"/>
<feGaussianBlur stdDeviation="17"/>
<feColorMatrix type="matrix" values="0 0 0 0 0.0599965 0 0 0 0 0.0750638 0 0 0 0 0.154167 0 0 0 0.15 0"/>
<feBlend mode="normal" in2="BackgroundImageFix" result="effect1_dropShadow_0_1"/>
<feBlend mode="normal" in="SourceGraphic" in2="effect1_dropShadow_0_1" result="shape"/>
</filter>
</defs>
</svg>
