<svg width="67" height="67" viewBox="0 0 67 67" fill="none" xmlns="http://www.w3.org/2000/svg">
    <path d="M40.0276 33.6507C40.6283 33.4506 41.1855 33.1226 41.8594 33.1487C42.9825 33.1934 43.9145 33.8756 44.2595 34.9666C44.5896 36.0129 44.2359 37.2754 43.2878 37.8097C39.6752 39.8438 35.9608 41.5623 31.6359 41.1038C29.7272 40.9013 27.9129 40.3943 26.1891 39.553C19.3263 36.2055 12.4523 32.8828 5.60566 29.5017C1.96577 27.7049 0.00248438 24.7201 2.35196e-06 20.6407C-0.00247967 16.5612 1.95956 13.579 5.59449 11.7723C12.4312 8.3725 19.2841 5.00506 26.1494 1.66371C30.73 -0.565514 35.354 -0.549361 39.9333 1.68111C46.7415 4.99885 53.5299 8.35759 60.3269 11.6977C63.9221 13.4647 65.9263 16.3487 66.1026 20.3524C66.2614 23.9659 64.7896 26.8599 61.7677 28.8965C60.5081 29.7452 58.9878 29.4532 58.1501 28.2678C57.3261 27.0997 57.5631 25.5042 58.8414 24.6717C60.9809 23.2775 61.5406 20.4431 60.3095 18.3232C59.8392 17.5143 59.1752 16.9067 58.3375 16.4954C52.1697 13.4659 46.0006 10.4377 39.8316 7.41073C39.7397 7.366 39.6392 7.33742 39.5424 7.30138C38.7159 6.88263 37.9092 6.41541 37.0591 6.05381C34.4927 4.96157 31.858 4.83109 29.2966 5.95192C26.6706 7.10132 24.1216 8.4309 21.5452 9.69214C16.9845 11.9263 12.4263 14.168 7.86927 16.4109C6.09338 17.2857 5.14028 18.691 5.16262 20.7041C5.18495 22.6984 6.20383 24.0429 7.94 24.8978C9.82882 25.8273 11.7276 26.7406 13.6201 27.6626C18.5383 30.0608 23.4576 32.4553 28.3708 34.861C29.9593 35.6389 31.6297 36.0427 33.3932 35.9868C35.8454 35.9122 37.9489 34.8113 40.0276 33.6507Z" fill="#455FE8"/>
    <path d="M40.0276 33.6508C37.9501 34.8114 35.8454 35.9123 33.3931 35.9894C31.6296 36.0453 29.9592 35.6415 28.3707 34.8636C23.4576 32.4579 18.5382 30.0634 13.6201 27.6652C11.7275 26.742 9.83 25.8299 7.93994 24.9004C6.20376 24.0455 5.18489 22.701 5.16255 20.7067C5.14022 18.6937 6.09455 17.2883 7.8692 16.4135C12.4262 14.1693 16.9832 11.9289 21.5452 9.69475C24.1215 8.43227 26.6705 7.10393 29.2965 5.95453C31.858 4.8337 34.4926 4.96293 37.0591 6.05642C37.9092 6.41802 38.7158 6.88523 39.5423 7.30399C39.1576 7.65565 38.6972 7.35494 38.269 7.42452C37.5617 7.5376 36.9101 7.7302 36.2809 8.04458C32.4214 9.97309 28.5656 11.9091 24.7035 13.8314C21.1381 15.607 17.5652 17.3666 13.9973 19.1385C13.1038 19.5821 12.7774 20.2481 13.0095 21.0857C13.1435 21.569 13.4972 21.8225 13.9229 22.0275C17.9164 23.9573 21.9026 25.9007 25.8974 27.8268C29.613 29.6173 33.3311 31.4017 37.0603 33.1625C37.8806 33.5489 38.7617 33.7664 39.6888 33.5576C39.8129 33.5278 39.9395 33.5328 40.0276 33.6508Z" fill="#CDE0F1"/>
    <path d="M32.9576 66.2028C30.7821 66.2873 28.5867 65.5815 26.4063 64.7887C23.0927 63.5834 19.7755 62.3893 16.4521 61.2125C12.4511 59.796 10.0038 57.0374 9.22444 52.8486C9.09289 52.1428 9.07055 51.4084 9.06435 50.6865C9.04077 47.7912 9.03704 44.8959 9.04325 41.9994C9.04573 41.1793 9.2083 40.3903 9.82385 39.7802C10.5796 39.0296 11.4669 38.7786 12.4833 39.1477C13.4811 39.5093 14.0582 40.3232 14.0793 41.4204C14.1413 44.6661 14.1823 47.913 14.2443 51.1586C14.2642 52.2062 14.4888 53.2002 15.1006 54.0862C15.7683 55.0517 16.6258 55.7612 17.7291 56.1589C21.7252 57.599 25.7163 59.0492 29.721 60.4645C32.0417 61.2846 34.3773 61.2337 36.7017 60.4371C40.797 59.033 44.8936 57.6301 48.9914 56.2347C49.8589 55.9389 50.6445 55.5164 51.3928 54.9821C52.9937 53.8377 55.0985 54.7125 55.4385 56.6485C55.616 57.6562 55.2263 58.4701 54.4581 59.11C53.5286 59.8842 52.4899 60.4781 51.3481 60.8696C46.7067 62.4613 42.0641 64.0494 37.4128 65.6113C36.0365 66.0723 34.5982 66.2252 32.9576 66.2028Z" fill="#455FE8"/>
    <path d="M54.7137 40.2053C54.7137 42.273 54.7062 44.3407 54.7174 46.4083C54.7236 47.4496 54.4072 48.3282 53.4913 48.8935C52.6549 49.4092 51.7725 49.449 50.9025 48.9644C50.0177 48.4711 49.5635 47.6994 49.5623 46.6842C49.5573 42.9005 49.5275 39.1155 49.5685 35.3318C49.597 32.736 48.4975 30.9405 46.1482 29.8147C42.4301 28.0328 38.7468 26.1801 35.0536 24.3485C34.7297 24.1882 34.443 24.1261 34.067 24.2168C32.0081 24.7138 29.9952 23.5296 29.4243 21.5228C28.8634 19.5558 29.9679 17.4496 31.9039 16.7935C33.8696 16.1274 36.0042 17.1253 36.7525 19.101C36.889 19.4613 37.1223 19.6129 37.4214 19.7608C41.1929 21.6197 44.9643 23.4799 48.7333 25.345C52.0157 26.9691 53.9964 29.5773 54.5921 33.2032C54.6951 33.832 54.7013 34.4806 54.7063 35.1193C54.7236 36.8142 54.7137 38.5104 54.7137 40.2053Z" fill="#3F4A59"/>
</svg>