<svg width="53" height="20" viewBox="0 0 53 20" fill="none" xmlns="http://www.w3.org/2000/svg">
<path d="M9.15428 19.0477C8.57409 19.0477 8.15996 18.7456 7.91138 18.1413L1.0752 2.30807C0.892526 1.88872 0.901347 1.55713 1.10011 1.31383C1.29887 1.07052 1.57235 0.948608 1.92057 0.948608C2.21897 0.948608 2.44627 1.02008 2.60404 1.16249C2.76128 1.30542 2.89828 1.51089 3.01401 1.77942L9.17919 16.2531L15.3195 1.75419C15.4352 1.48619 15.5763 1.2844 15.7419 1.14987C15.9074 1.01587 16.1394 0.948608 16.4378 0.948608C16.786 0.948608 17.0424 1.07893 17.2084 1.33853C17.374 1.59917 17.374 1.92183 17.2084 2.30754L10.3723 18.1407C10.2394 18.4429 10.0822 18.6694 9.90001 18.8202C9.71786 18.9721 9.46928 19.0477 9.15428 19.0477Z" fill="#3F4A59"/>
<path d="M20.8879 19.0477C20.2081 19.0477 19.8687 18.6872 19.8687 17.9652V2.03113C19.8687 1.30962 20.2081 0.948608 20.8879 0.948608C21.5672 0.948608 21.9071 1.30962 21.9071 2.03113V17.9652C21.9071 18.6867 21.5672 19.0477 20.8879 19.0477Z" fill="#3F4A59"/>
<path d="M26.2321 18.8717C25.7183 18.8717 25.3909 18.6663 25.2503 18.2548C25.1091 17.8439 25.2295 17.3783 25.6109 16.858L35.4052 2.91294H26.0832C25.4371 2.91294 25.1138 2.61078 25.1138 2.00699C25.1138 1.42001 25.4371 1.12573 26.0832 1.12573H36.8717C37.4021 1.12573 37.7373 1.327 37.8785 1.73005C38.0191 2.13258 37.8992 2.6029 37.5178 3.13996L27.7236 17.085H37.3938C38.0404 17.085 38.3632 17.3788 38.3632 17.9663C38.3632 18.5706 38.0399 18.8723 37.3938 18.8723H26.2321V18.8717Z" fill="#3F4A59"/>
<path d="M42.0173 18.8716C41.2716 18.8716 40.8984 18.4938 40.8984 17.7387V2.25809C40.8984 1.50295 41.2716 1.12512 42.0173 1.12512H51.2646C51.8442 1.12512 52.1343 1.41047 52.1343 1.98116C52.1343 2.56866 51.8442 2.86241 51.2646 2.86241H42.8871V9.00441H50.7425C51.3222 9.00441 51.6128 9.28975 51.6128 9.86044C51.6128 10.4479 51.3227 10.7417 50.7425 10.7417H42.8871V17.1354H51.2646C51.8442 17.1354 52.1343 17.4207 52.1343 17.9914C52.1343 18.5789 51.8442 18.8727 51.2646 18.8727H42.0173V18.8716Z" fill="#3F4A59"/>
</svg>
