 <svg width="50" height="50" viewBox="0 0 50 50" fill="none" xmlns="http://www.w3.org/2000/svg">
    <path d="M31.1042 5.20834V17.5C31.1056 17.7033 31.0475 17.9025 30.937 18.0732C30.8265 18.2438 30.6685 18.3784 30.4825 18.4604C30.2964 18.5423 30.0905 18.568 29.89 18.5344C29.6895 18.5007 29.5033 18.4091 29.3542 18.2708L25.7084 14.9167C25.5158 14.738 25.2627 14.6388 25 14.6388C24.7373 14.6388 24.4843 14.738 24.2917 14.9167L20.6459 18.25C20.4981 18.3871 20.3138 18.4783 20.1152 18.5127C19.9166 18.5471 19.7124 18.5232 19.5271 18.4438C19.3419 18.3644 19.1837 18.233 19.0716 18.0655C18.9596 17.8979 18.8985 17.7015 18.8959 17.5V5.20834C18.8959 4.93207 19.0056 4.66712 19.201 4.47177C19.3963 4.27642 19.6613 4.16667 19.9375 4.16667H30.0625C30.3388 4.16667 30.6038 4.27642 30.7991 4.47177C30.9945 4.66712 31.1042 4.93207 31.1042 5.20834Z" fill="#455FE8"/>
    <path d="M35.375 4.28331C35.2297 4.26871 35.083 4.28482 34.9443 4.33058C34.8057 4.37635 34.6782 4.45076 34.5701 4.54899C34.4621 4.64721 34.3759 4.76705 34.3171 4.90074C34.2584 5.03442 34.2284 5.17896 34.2292 5.32498V17.8666C34.2308 18.6443 34.0053 19.4055 33.5804 20.0568C33.1555 20.7081 32.5497 21.2213 31.8374 21.5332C31.125 21.8451 30.3371 21.9423 29.5703 21.8128C28.8035 21.6833 28.0912 21.3327 27.5208 20.8041L25.7083 19.1375C25.5157 18.9588 25.2627 18.8596 25 18.8596C24.7373 18.8596 24.4843 18.9588 24.2917 19.1375L22.4792 20.8041C21.9089 21.3315 21.1973 21.6813 20.4315 21.8107C19.6656 21.9402 18.8786 21.8438 18.1667 21.5333C17.4551 21.2198 16.85 20.7064 16.4247 20.0555C15.9993 19.4046 15.7722 18.6442 15.7708 17.8666V5.32498C15.7716 5.17896 15.7416 5.03442 15.6829 4.90074C15.6241 4.76705 15.5379 4.64721 15.4299 4.54899C15.3218 4.45076 15.1943 4.37635 15.0557 4.33058C14.917 4.28482 14.7703 4.26871 14.625 4.28331C8.79167 5.02081 6.25 8.95831 6.25 14.5833V35.4166C6.25 41.6666 9.375 45.8333 16.6667 45.8333H33.3333C40.625 45.8333 43.75 41.6666 43.75 35.4166V14.5833C43.75 8.95831 41.2083 5.02081 35.375 4.28331ZM36.4583 39.0541H18.75C18.3356 39.0541 17.9382 38.8895 17.6451 38.5965C17.3521 38.3035 17.1875 37.906 17.1875 37.4916C17.1875 37.0772 17.3521 36.6798 17.6451 36.3868C17.9382 36.0938 18.3356 35.9291 18.75 35.9291H36.4583C36.8727 35.9291 37.2702 36.0938 37.5632 36.3868C37.8562 36.6798 38.0208 37.0772 38.0208 37.4916C38.0208 37.906 37.8562 38.3035 37.5632 38.5965C37.2702 38.8895 36.8727 39.0541 36.4583 39.0541ZM36.4583 30.7208H27.6042C27.1898 30.7208 26.7923 30.5562 26.4993 30.2632C26.2063 29.9701 26.0417 29.5727 26.0417 29.1583C26.0417 28.7439 26.2063 28.3465 26.4993 28.0535C26.7923 27.7604 27.1898 27.5958 27.6042 27.5958H36.4583C36.8727 27.5958 37.2702 27.7604 37.5632 28.0535C37.8562 28.3465 38.0208 28.7439 38.0208 29.1583C38.0208 29.5727 37.8562 29.9701 37.5632 30.2632C37.2702 30.5562 36.8727 30.7208 36.4583 30.7208Z" fill="#455FE8"/>
</svg>