<svg width="31" height="20" viewBox="0 0 31 20" fill="none" xmlns="http://www.w3.org/2000/svg">
<rect y="16" width="31" height="4" fill="#E0E5FF"/>
<path d="M15.128 18.288C14.024 18.288 13.024 18.096 12.128 17.712C11.232 17.312 10.512 16.704 9.968 15.888C9.424 15.072 9.136 14.048 9.104 12.816H12.128C12.144 13.632 12.408 14.32 12.92 14.88C13.448 15.424 14.184 15.696 15.128 15.696C16.024 15.696 16.712 15.448 17.192 14.952C17.672 14.456 17.912 13.832 17.912 13.08C17.912 12.2 17.592 11.536 16.952 11.088C16.328 10.624 15.52 10.392 14.528 10.392H13.28V7.872H14.552C15.368 7.872 16.048 7.68 16.592 7.296C17.136 6.912 17.408 6.344 17.408 5.592C17.408 4.968 17.2 4.472 16.784 4.104C16.384 3.72 15.824 3.528 15.104 3.528C14.32 3.528 13.704 3.76 13.256 4.224C12.824 4.688 12.584 5.256 12.536 5.928H9.536C9.6 4.376 10.136 3.152 11.144 2.256C12.168 1.36 13.488 0.912 15.104 0.912C16.256 0.912 17.224 1.12 18.008 1.536C18.808 1.936 19.408 2.472 19.808 3.144C20.224 3.816 20.432 4.56 20.432 5.376C20.432 6.32 20.168 7.12 19.64 7.776C19.128 8.416 18.488 8.848 17.72 9.072C18.664 9.264 19.432 9.728 20.024 10.464C20.616 11.184 20.912 12.096 20.912 13.2C20.912 14.128 20.688 14.976 20.24 15.744C19.792 16.512 19.136 17.128 18.272 17.592C17.424 18.056 16.376 18.288 15.128 18.288Z" fill="#292929"/>
</svg>
