<svg width="13" height="13" viewBox="0 0 13 13" fill="none" xmlns="http://www.w3.org/2000/svg">
<path opacity="0.2" d="M0.0829208 3.70047C-0.0400449 3.18842 -0.0260303 2.65304 0.123509 2.14811C0.273049 1.64317 0.552875 1.18646 0.93485 0.823948C1.31682 0.461432 1.78748 0.205879 2.29953 0.0829202C2.81159 -0.0400384 3.34703 -0.0260379 3.85196 0.123509L10.495 2.09153C11 2.24105 11.4567 2.52084 11.8192 2.90287C12.1818 3.28489 12.4374 3.75567 12.5603 4.2678C12.6833 4.77992 12.6693 5.31537 12.5196 5.82035C12.37 6.32532 12.09 6.78202 11.7079 7.1445L6.68192 11.9135C6.29991 12.2759 5.82922 12.5314 5.31717 12.6543C4.80512 12.7772 4.26977 12.7632 3.76487 12.6136C3.25997 12.464 2.80336 12.1842 2.44089 11.8022C2.07842 11.4202 1.82285 10.9495 1.69993 10.4375L0.0829208 3.70047Z" fill="#455FE8"/>
</svg>
