<svg width="31" height="20" viewBox="0 0 31 20" fill="none" xmlns="http://www.w3.org/2000/svg">
<rect y="16" width="31" height="4" fill="#E0E5FF"/>
<path d="M9.224 18V15.768C10.248 14.92 11.24 14.08 12.2 13.248C13.176 12.416 14.04 11.592 14.792 10.776C15.56 9.96 16.168 9.168 16.616 8.4C17.08 7.616 17.312 6.856 17.312 6.12C17.312 5.432 17.12 4.824 16.736 4.296C16.368 3.768 15.752 3.504 14.888 3.504C14.008 3.504 13.344 3.792 12.896 4.368C12.448 4.944 12.224 5.64 12.224 6.456H9.248C9.28 5.224 9.552 4.2 10.064 3.384C10.576 2.552 11.256 1.936 12.104 1.536C12.952 1.12 13.904 0.912 14.96 0.912C16.672 0.912 18 1.384 18.944 2.328C19.904 3.256 20.384 4.464 20.384 5.952C20.384 6.88 20.168 7.784 19.736 8.664C19.32 9.544 18.768 10.392 18.08 11.208C17.392 12.024 16.648 12.792 15.848 13.512C15.048 14.216 14.272 14.872 13.52 15.48H20.792V18H9.224Z" fill="#292929"/>
</svg>
