<svg width="623" height="670" viewBox="0 0 623 670" fill="none" xmlns="http://www.w3.org/2000/svg">
                    <g opacity="0.1" filter="url(#filter0_d_2_324)">
                    <path d="M479.451 632.226C470.226 638.893 458.984 642 447.601 642H175.4C164.017 642 152.773 638.893 143.548 632.224C109.93 607.925 81.9202 576.618 61.5113 540.401C37.4996 497.748 24.9243 449.639 25.0003 400.723C24.9959 381.382 26.946 362.09 30.8213 343.139C38.3276 306.591 52.9767 271.875 73.9327 240.972C105.027 195.035 148.811 159.076 199.982 137.453C217.313 130.147 235.327 124.571 253.76 120.805C291.862 113.065 331.137 113.065 369.239 120.805C405.887 128.291 440.698 142.9 471.685 163.799C517.747 194.809 553.803 238.475 575.485 289.507C582.811 306.791 588.403 324.756 592.179 343.139C601.041 386.499 599.77 431.313 588.463 474.104C576.172 520.239 552.47 562.56 519.527 597.191C507.274 610.088 493.857 621.815 479.451 632.226Z" fill="url(#paint0_linear_2_324)"/>
                    </g>
                    <g filter="url(#filter1_d_2_324)">
                    <path opacity="0.78" d="M312.249 638.159C443.587 638.159 550.057 531.689 550.057 400.352C550.057 269.014 443.587 162.544 312.249 162.544C180.912 162.544 74.4414 269.014 74.4414 400.352C74.4414 531.689 180.912 638.159 312.249 638.159Z" fill="url(#paint1_linear_2_324)"/>
                    </g>
                    <path d="M431.199 99.3715L436.759 101.091L440.492 92.3773L448.928 93.8849L452.779 87.8225L455.821 89.79L450.673 97.8959L442.677 96.4683L438.794 105.534L430.425 102.943L431.199 99.3715Z" fill="#50BFA5"/>
                    <path d="M74.6681 412.775L80.2288 414.494L83.961 405.781L92.3973 407.288L96.2485 401.226L99.2906 403.193L94.1425 411.295L86.1464 409.872L82.2635 418.937L73.8947 416.346L74.6681 412.775Z" fill="#50BFA5"/>
                    <path d="M465.455 515.936C465.455 515.936 495.123 414.555 497.502 392.188C499.882 369.826 483.295 376.756 483.295 376.756C483.295 376.756 497.253 334.143 487.159 324.03C477.068 313.916 467.966 332.768 467.966 332.768C467.966 332.768 464.912 281.037 454.151 281.017C434.11 280.981 434.506 337.434 434.506 337.434C434.506 337.434 429.39 315.332 418.661 321.39C402.479 330.528 425.686 374.821 425.686 374.821C425.686 374.821 405.065 374.837 397.823 385.318C384.821 404.129 465.455 515.936 465.455 515.936Z" fill="#50BFA5"/>
                    <path d="M455.758 502.52C455.758 502.52 541.282 488.1 559.884 472.819C578.486 457.539 560.074 450.649 560.074 450.649C560.074 450.649 603.037 428.443 602.541 413.343C602.045 398.243 580.699 405.921 580.699 405.921C580.699 405.921 616.899 364.299 608.328 356.397C592.363 341.673 550.515 384.938 550.515 384.938C550.515 384.938 562.942 364.363 549.853 361.108C530.117 356.197 515.549 406.932 515.549 406.932C515.549 406.932 519.25 386.898 505.641 389.565C481.225 394.356 455.758 502.52 455.758 502.52Z" fill="#50BFA5"/>
                    <path d="M505.645 389.569C519.289 387.082 515.553 406.937 515.553 406.937C515.553 406.937 530.121 356.202 549.857 361.112C562.946 364.367 550.519 384.942 550.519 384.942C550.519 384.942 592.371 341.677 608.332 356.402L456.047 502.548C458.756 488.584 482.772 393.736 505.645 389.569Z" fill="#3C8F7C"/>
                    <path d="M431.425 514.413C431.425 514.413 476.466 468.233 499.145 463.422C521.828 458.612 517.746 474.883 517.746 474.883C517.746 474.883 562.747 435.206 573.175 444.819C583.602 454.433 572.322 463.714 572.322 463.714C572.322 463.714 609.807 457.016 615.173 469.421C623.419 488.48 561.772 498.849 561.772 498.849C561.772 498.849 587.604 500.653 581.615 512.602C572.58 530.625 431.425 514.413 431.425 514.413Z" fill="#355389"/>
                    <path d="M615.173 469.421C609.807 457.02 572.322 463.714 572.322 463.714C572.322 463.714 583.602 454.432 573.175 444.819C562.747 435.205 519.142 469.489 519.142 469.489C519.142 469.489 529.423 449.678 506.74 454.484C484.057 459.295 431.417 514.413 431.417 514.413L615.173 469.421Z" fill="#466EB6"/>
                    <path d="M359.719 38.1231C374.878 40.6385 379.383 60.7013 366.779 69.675C364.514 71.2866 362.947 73.71 362.281 76.4213L359.984 85.7549C359.354 88.3262 356.867 89.9778 354.273 89.5459L348.53 88.5941C345.936 88.1623 344.108 85.7989 344.326 83.1555C345.123 73.522 346.107 70.0269 343.001 65.728C333.918 53.1593 344.556 35.6038 359.719 38.1231Z" fill="#F7CC7F"/>
                    <path d="M358.172 78.9086C359.16 70.6547 360.544 61.941 361.016 59.4696C369.706 59.9535 366.402 50.7158 362.392 54.4709C361.25 55.5426 360.71 56.9942 360.353 58.5818C357.466 58.3179 354.646 57.4901 352.072 56.1504C352.211 54.115 352.409 52.5714 351.846 51.2677C350.993 49.3002 348.522 48.7643 347.515 50.6799C347.138 51.3997 347.07 52.3194 347.344 53.0832C347.927 54.7108 349.68 55.7865 351.211 56.6303C350.755 63.1926 350.12 69.8069 349.323 76.3173L350.144 76.4212C350.93 70.0149 351.556 63.5086 352.012 57.0502C354.567 58.3299 357.343 59.1297 360.187 59.4016C359.592 62.5608 358.279 71.0546 357.351 78.8046L358.172 78.9086ZM365.145 57.5221C364.371 58.3619 363.078 58.7298 361.19 58.6418C361.516 57.2382 361.999 55.9785 362.959 55.0827C365.113 53.0592 366.438 56.1145 365.145 57.5221ZM351.092 51.6036C351.568 52.6993 351.386 54.103 351.279 55.7146C350.037 55.0028 348.593 54.111 348.129 52.8073C347.8 51.8915 348.169 50.5999 349.093 50.3599C349.192 50.332 350.759 50.8358 351.092 51.6036Z" fill="#FAE0B2"/>
                    <path d="M362.348 76.1895C362.328 76.2655 362.301 76.3414 362.281 76.4214L359.984 85.755C359.354 88.3264 356.867 89.9779 354.273 89.546L348.53 88.5943C345.936 88.1624 344.108 85.799 344.326 83.1557C344.679 78.8688 345.071 75.8016 345.123 73.3342L362.348 76.1895Z" fill="#96D9C9"/>
                    <path d="M370.959 31.153L375.492 22.8111C375.933 22.0033 375.639 20.9916 374.838 20.5477C374.037 20.1038 373.033 20.3997 372.593 21.2075L368.06 29.5494C367.619 30.3572 367.913 31.3689 368.714 31.8128C369.519 32.2607 370.519 31.9568 370.959 31.153Z" fill="#FAE0B2"/>
                    <path d="M380.867 51.3357L390.751 50.4639C391.659 50.384 392.333 49.5762 392.254 48.6564C392.175 47.7406 391.373 47.0608 390.461 47.1408L380.581 48.0126C379.673 48.0925 378.999 48.9003 379.078 49.8201C379.153 50.7358 379.955 51.4157 380.867 51.3357Z" fill="#FAE0B2"/>
                    <path d="M390.663 81.8798C391.306 81.224 391.298 80.1682 390.648 79.5204C388.216 77.101 385.547 74.9016 382.707 72.9901C381.95 72.4782 380.922 72.6862 380.415 73.45C379.907 74.2138 380.113 75.2495 380.871 75.7614C383.536 77.5569 386.043 79.6204 388.323 81.8918C388.974 82.5396 390.021 82.5396 390.663 81.8798Z" fill="#FAE0B2"/>
                    <path d="M346.543 30.7011C347.427 30.4652 347.951 29.5494 347.713 28.6616C346.594 24.4387 345.908 20.0838 345.674 15.717C345.623 14.7972 344.845 14.0894 343.933 14.1414C343.021 14.1893 342.323 14.9771 342.37 15.8969C342.616 20.4917 343.338 25.0785 344.516 29.5254C344.754 30.4172 345.666 30.937 346.543 30.7011Z" fill="#FAE0B2"/>
                    <path d="M336.365 43.5098C336.627 42.6261 336.135 41.6983 335.259 41.4304L324.986 38.3072C324.11 38.0432 323.19 38.5391 322.924 39.4229C322.662 40.3027 323.154 41.2344 324.03 41.4983L334.303 44.6215C335.176 44.8895 336.1 44.3936 336.365 43.5098Z" fill="#FAE0B2"/>
                    <path d="M319.489 71.0707C319.636 71.0707 319.787 71.0507 319.937 71.0068C323.495 69.999 326.957 68.5994 330.226 66.8478C331.031 66.4159 331.336 65.4082 330.908 64.5924C330.48 63.7806 329.476 63.4687 328.671 63.9006C325.613 65.5402 322.373 66.8478 319.041 67.7916C318.16 68.0395 317.649 68.9593 317.899 69.847C318.105 70.5909 318.767 71.0707 319.489 71.0707Z" fill="#FAE0B2"/>
                    <path d="M169.013 144.772L174.197 132.415L187.234 129.716C188.718 129.408 189.21 127.516 188.063 126.517L178.009 117.727L179.488 104.394C179.659 102.875 178.025 101.823 176.728 102.611L165.333 109.537L153.212 103.998C151.832 103.367 150.332 104.606 150.673 106.094L153.684 119.162L144.712 129.072C143.689 130.2 144.395 132.019 145.906 132.151L159.165 133.303L165.741 144.968C166.487 146.292 168.422 146.18 169.013 144.772Z" fill="#F7CC7F"/>
                    <path d="M86.5036 102.371L88.6335 111.02L102.821 109.101L107.481 121.362L118.329 121.678L118.17 127.212L103.662 126.792L99.2432 115.175L84.4888 117.171L81.284 104.15L86.5036 102.371Z" fill="#F48C7F"/>
                    <path d="M212.88 517.072H462.219C471.742 517.072 479.464 508.998 479.464 499.041V488.32C479.464 478.358 471.742 470.288 462.219 470.288H212.88C224.287 483.325 224.481 503.252 213.34 516.532L212.88 517.072Z" fill="#F99746"/>
                    <path d="M216.727 475.647H355.023C364.546 475.647 372.268 483.721 372.268 493.682C372.268 503.64 364.55 511.713 355.023 511.713H216.715C223.18 500.648 223.165 486.68 216.727 475.647Z" fill="#FAE0B2"/>
                    <path d="M300.475 437.788C300.114 437.105 300.665 436.309 301.502 436.309H433.436C443.776 436.309 452.16 443.915 452.16 453.3C452.16 462.682 443.776 470.292 433.436 470.292H301.466C300.626 470.292 300.07 469.492 300.439 468.804C305.663 458.983 305.647 447.566 300.475 437.788Z" fill="#86B1F2"/>
                    <path d="M301.308 439.472H366.695C378.832 439.472 388.672 445.847 388.672 453.708C388.672 461.57 378.832 467.945 366.695 467.945H300.879C305.377 458.887 305.5 448.57 301.308 439.472Z" fill="#F7CC7F"/>
                    <path d="M318.196 446.222H326.712C328.544 446.222 330.027 446.842 330.027 447.606V447.73H318.196V446.222Z" fill="#B75742"/>
                    <path d="M310.93 449.693C310.93 447.774 313.155 446.222 315.896 446.222H326.823C324.74 446.222 323.055 447.402 323.055 448.857L323.106 486.084L317.07 481.297L310.914 486.084L310.93 449.693Z" fill="#F47458"/>
                    <path d="M324.733 435.085H401.499C408.305 435.085 413.826 428.483 413.826 420.337C413.826 412.191 408.309 405.589 401.499 405.589H324.733C330.599 413.767 330.829 425.759 325.28 434.249L324.733 435.085Z" fill="#FAE0B2"/>
                    <path d="M413.815 420.333C413.815 412.187 408.167 405.585 401.198 405.585H323.269C322.904 405.585 322.611 405.237 322.615 404.813C322.618 404.393 322.908 404.057 323.269 404.057H446.893C454.584 404.057 460.819 411.343 460.819 420.337C460.819 429.327 454.584 436.617 446.893 436.617H323.269C322.912 436.617 322.618 436.277 322.615 435.861C322.611 435.437 322.904 435.089 323.269 435.089H401.198C408.167 435.085 413.815 428.479 413.815 420.333Z" fill="#466EB6"/>
                    <path d="M338.134 412.831H346.65C348.482 412.831 349.966 413.439 349.966 414.191V414.311H338.134V412.831Z" fill="#184655"/>
                    <path d="M330.872 416.238C330.872 414.358 333.097 412.831 335.838 412.831H346.765C344.683 412.831 342.997 413.986 342.997 415.414L343.049 451.921L337.012 447.226L330.856 451.921L330.872 416.238Z" fill="#3C8F7C"/>
                    <path d="M202.421 187.341L191.09 184.334L198.772 287.627L212.368 288.083L205.511 191.092C205.38 189.304 204.139 187.797 202.421 187.341Z" fill="#184655"/>
                    <path d="M197.753 290.57C198.007 290.594 198.264 290.59 198.53 290.558C200.779 290.29 202.449 288.035 202.251 285.516L194.707 188.389C194.512 185.873 192.529 184.05 190.276 184.318C188.024 184.586 186.358 186.841 186.556 189.36L194.1 286.487C194.274 288.711 195.841 290.394 197.753 290.57Z" fill="#F7CC7F"/>
                    <path d="M302.053 295.745C302.05 295.817 302.046 295.889 302.038 295.961C301.681 299.912 298.646 302.867 295.255 302.563L199.55 293.925C196.158 293.622 193.699 290.166 194.052 286.215C194.068 286.048 194.088 285.884 194.112 285.72L302.053 295.745Z" fill="#F7CC7F"/>
                    <path d="M235.408 400.07C241.675 403.574 260.832 397.431 260.832 396.875C261.106 402.154 282.282 453.821 282.282 453.821L282.266 469.717C282.266 469.717 238.633 471.812 239.26 467.925C239.886 464.038 242.234 466.565 250.936 459.223C251.71 458.571 263.93 455.712 260.622 448.418C253.963 433.73 239.819 409.24 235.408 400.07Z" fill="#F7A491"/>
                    <path d="M283.698 470.284L235.936 470.296C234.211 470.12 233.81 468.705 234.417 467.845C235.67 466.073 244.824 461.902 250.976 459.131C261.693 460.395 280.533 456.24 282.258 453.772C286.799 459.903 284.661 470.084 283.698 470.284Z" fill="#2B478B"/>
                    <path d="M294.176 362.976C294.823 361.02 253.054 343.149 251.186 345.193C247.878 348.804 273.786 416.602 273.786 416.602L244.023 425.772C244.023 425.772 213.082 347.444 214.371 333.116C215.664 318.787 231.165 302.508 264.751 312.929C298.337 323.35 294.176 362.976 294.176 362.976Z" fill="#355389"/>
                    <path d="M207.696 408.98C214.748 407.684 223.886 407.316 231.2 407.188C230.339 413.755 226.151 447.434 226.917 449.502C230.018 457.883 236.896 461.806 236.896 461.806C236.896 461.806 204.464 491.311 202.504 487.904C200.545 484.497 203.952 484.952 206.07 473.711C206.256 472.712 210.949 457.024 211.238 448.558C211.793 432.422 207.938 417.946 207.696 408.98Z" fill="#F7A491"/>
                    <path d="M218.104 298.808C222.629 296.373 234.373 296.289 247.291 297.133C272.473 298.776 297.326 303.775 321.278 311.773L337.305 317.128L337.254 300.56C337.254 300.56 388.244 291.958 390.017 304.699C392.69 323.886 389.374 362.844 372.383 371.538C319.612 398.547 245.661 328.513 245.395 337.674C245.035 349.979 234.746 395.772 232.116 415.818C224.799 415.946 212.23 415.942 206.78 414.679C205.721 375.405 205.221 305.739 218.104 298.808Z" fill="#466EB6"/>
                    <path d="M237.887 462.502L201.43 491.867C199.986 492.831 198.784 491.995 198.717 490.943C198.574 488.772 203.032 479.694 206.05 473.623C215.133 467.753 227.115 452.437 226.901 449.43C230.736 452.697 238.502 461.731 237.887 462.502Z" fill="#2B478B"/>
                    <path d="M320.409 138.654C321.635 127.364 322.924 116.035 332.205 107.761C339.717 101.067 349.264 99.9315 358.707 103.515C385.46 113.664 371.677 137.618 405.787 161.772C416.389 169.278 428.069 174.412 436.049 184.518C447.218 198.662 443.002 215.678 432.821 227.039C384.111 281.393 329.726 207.988 325.823 190.364C322.916 177.256 319.62 145.92 320.409 138.654Z" fill="#233862"/>
                    <path d="M330.301 202.125C334.279 194.731 338.38 188.861 338.38 188.861C342.509 181.463 353.17 177.724 353.17 177.724C353.17 177.724 356.736 177.796 360.833 178C361.087 178.683 361.345 179.175 361.607 179.371C363.146 180.535 371.967 179.031 377.662 182.934C396.76 199.438 391.477 279.437 389.973 304.703L331.816 305.259C331.816 305.259 339.15 250.893 327.33 236.924C319.1 227.195 324.395 213.099 330.301 202.125Z" fill="#F99746"/>
                    <path d="M356.514 150.659C356.514 150.659 359.711 173.677 361.944 179.271C364.177 184.866 349.668 196.827 337.595 200.458C325.522 204.089 341.284 188.101 340.784 182.122C340.284 176.144 338.091 147.831 338.091 147.831L356.514 150.659Z" fill="#F7A491"/>
                    <path d="M338.698 155.949C338.345 151.266 338.087 147.831 338.087 147.831L356.514 150.659C356.514 150.659 356.978 153.362 357.494 157.189C350.021 161.556 343.306 160.176 338.698 155.949Z" fill="#F47458"/>
                    <path d="M350.735 108.613C350.735 108.613 357.997 110.265 362.483 117.163C366.969 124.061 370.043 144.376 355.277 153.858C340.506 163.339 329.02 149.927 328.83 136.846C328.639 123.765 331.42 106.306 350.735 108.613Z" fill="#F7A491"/>
                    <path d="M331.018 137.144C329.196 137.884 326.696 135.924 325.436 132.767C324.175 129.61 324.631 126.45 326.454 125.711C328.277 124.971 330.776 126.931 332.037 130.088C333.297 133.246 332.841 136.405 331.018 137.144Z" fill="#F7A491"/>
                    <path d="M348.558 108.185C348.558 108.185 357.815 129.124 365.95 130.996C374.085 132.867 373.966 143.4 373.966 143.4C373.966 143.4 373.783 119.071 366.16 113.488C358.537 107.906 348.558 108.185 348.558 108.185Z" fill="#13375B"/>
                    <path d="M364.922 142.837C362.643 142.107 361.662 138.76 362.733 135.36C363.803 131.96 366.519 129.796 368.799 130.526C371.079 131.256 372.059 134.603 370.989 138.003C369.918 141.402 367.202 143.567 364.922 142.837Z" fill="#F7A491"/>
                    <path d="M258.694 286.515C262.185 285.244 267.376 285.084 267.289 284.62C266.94 282.74 251.523 288.771 253.606 286.028C254.764 284.5 266.302 279.089 269.106 279.985C271.827 280.853 289.695 285.908 289.695 285.908L338.523 274.371C338.523 274.371 350.846 246.134 352.052 221.872C362.241 223.26 369.174 225.799 378.031 230.754C373.759 253.956 363.384 291.562 351.909 298.616C347.082 301.584 289.457 295.065 289.457 295.065C289.457 295.065 276.757 294.161 274.682 293.358C273.108 292.746 269.058 290.446 266.853 289.819C261.843 288.387 252.915 291.978 252.888 290.99C252.864 290.262 255.129 287.815 258.694 286.515Z" fill="#F7A491"/>
                    <path d="M351.751 195.947C352.219 188.481 355.023 181.275 362.904 178.951C367.786 177.512 373.264 178.887 377.166 182.102C381.807 185.925 383.104 192.056 383.084 197.858C383.036 211.035 382.144 224.699 379.756 237.672C370.904 232.717 360.568 229.738 350.378 228.351C350.378 228.279 351.128 205.812 351.751 195.947Z" fill="#FFB27D"/>
                    <path d="M503.035 210.035L578.735 195.823C580.254 195.539 581.258 194.064 580.976 192.532L571.493 141.185C571.211 139.653 569.748 138.642 568.229 138.926L492.529 153.138C491.01 153.422 490.006 154.898 490.288 156.429L499.771 207.776C500.053 209.308 501.516 210.319 503.035 210.035Z" fill="#F7CC7F"/>
                    <path d="M539.069 151.338L562.113 147.011C563.632 146.727 564.635 145.252 564.354 143.72L562.91 135.906C562.628 134.375 561.165 133.363 559.646 133.647L536.602 137.974C535.083 138.258 534.079 139.733 534.361 141.265L535.805 149.079C536.086 150.61 537.55 151.622 539.069 151.338Z" fill="#F7CC7F"/>
                    <path d="M499.589 208.072C499.981 209.475 501.373 210.347 502.797 210.079L578.989 195.775C580.405 195.507 581.393 194.203 581.266 192.752L577.28 146.728C577.212 145.936 576.812 145.208 576.185 144.724C575.554 144.244 574.753 144.052 573.98 144.196L489.332 160.088C488.559 160.232 487.88 160.7 487.464 161.376C487.047 162.052 486.932 162.867 487.147 163.631L499.589 208.072Z" fill="#FAE0B2"/>
                    <path d="M152.383 39.899L165.345 43.4701L168.137 27.6302L163.897 26.8704L161.93 38.0275L153.517 35.7081L152.383 39.899Z" fill="#50BFA5"/>
                    <path d="M565.361 257.415C562.117 257.147 557.131 258.591 554.898 260.118C554.561 260.434 551.991 261.466 549.322 265.929L549.925 266.349C552.745 263.374 554.64 262.706 556.897 262.026C560.618 261.062 564.37 261.782 564.679 261.95L565.361 257.415Z" fill="#355389"/>
                    <path d="M549.619 266.137C549.619 266.137 569.399 269.464 567.555 285.044C565.71 300.624 544.844 312.741 526.222 303.107C501.167 290.147 511.063 257.191 528.895 254.644C546.724 252.096 549.619 266.137 549.619 266.137Z" fill="#F47458"/>
                    <path d="M541.227 259.279C541.227 259.279 536.067 253.936 524.759 258.795C513.451 263.653 512.634 286.316 522.716 285C532.806 283.684 549.29 262.546 541.227 259.279Z" fill="#F48C7F"/>
                    <path d="M405.164 52.3117L486.512 81.5682C489.134 82.5119 492.017 81.1323 492.953 78.489L507.97 36.0479C508.906 33.4045 507.537 30.4973 504.916 29.5536L423.568 0.297073C420.946 -0.646685 418.062 0.732953 417.126 3.37627L402.11 45.8134C401.174 48.4607 402.539 51.3679 405.164 52.3117Z" fill="#5870F3"/>
                    <path d="M474.264 63.121C465.36 63.121 458.141 55.843 458.141 46.8652C458.141 37.8874 465.36 30.6094 474.264 30.6094C483.169 30.6094 490.387 37.8874 490.387 46.8652C490.387 55.843 483.169 63.121 474.264 63.121Z" fill="white"/>
                    <path d="M476.434 45.5334C473.807 45.5334 471.678 43.3867 471.678 40.7386C471.678 38.0905 473.807 35.9438 476.434 35.9438C479.06 35.9438 481.189 38.0905 481.189 40.7386C481.189 43.3867 479.06 45.5334 476.434 45.5334Z" fill="#5870F3"/>
                    <path d="M464.21 52.4956L478.52 57.6423L479.091 56.0227C480.134 53.0675 478.607 49.8203 475.68 48.7646L471.98 47.4329C469.049 46.3772 465.828 47.9208 464.781 50.872L464.21 52.4956Z" fill="#5870F3"/>
                    <path d="M457.074 32.5327C457.943 32.5327 458.72 31.9809 459.01 31.1571C459.391 30.0813 458.831 28.8937 457.765 28.5098L422.203 15.7211C421.981 15.6411 421.747 15.6011 421.513 15.6011C420.644 15.6011 419.867 16.1529 419.577 16.9767C419.197 18.0524 419.756 19.2401 420.823 19.624L456.384 32.4128C456.61 32.4887 456.84 32.5327 457.074 32.5327Z" fill="white"/>
                    <path d="M447.476 41.4703C448.345 41.4703 449.122 40.9184 449.412 40.0946C449.792 39.0189 449.233 37.8312 448.166 37.4473L420.391 27.4579C420.169 27.3779 419.934 27.3379 419.7 27.3379C418.832 27.3379 418.055 27.8897 417.765 28.7135C417.583 29.2334 417.61 29.7973 417.844 30.2971C418.078 30.797 418.495 31.1769 419.01 31.3609L446.786 41.3503C447.008 41.4263 447.242 41.4703 447.476 41.4703Z" fill="white"/>
                    <path d="M278.768 372.421H475.192C481.292 372.421 486.238 377.408 486.238 383.559V392.924C486.238 399.075 481.292 404.061 475.192 404.061H278.768L278.871 403.953C287.271 395.136 287.228 381.187 278.768 372.421Z" fill="#F47458"/>
                    <path d="M282.242 377.104H387.249C393.349 377.104 398.295 382.091 398.295 388.241C398.295 394.392 393.349 399.379 387.249 399.379H282.246C286.105 392.48 286.101 383.994 282.242 377.104Z" fill="#FAE0B2"/>
                    <path d="M118.003 373.333L132.893 335.671C133.642 333.775 132.726 331.628 130.846 330.872L77.2699 309.341C75.3899 308.586 73.2601 309.509 72.5104 311.405L57.6211 349.067C56.8715 350.963 57.7877 353.11 59.6677 353.866L113.244 375.396C115.124 376.152 117.254 375.228 118.003 373.333Z" fill="#FAE0B2"/>
                    <path d="M67.4615 351.555L80.8396 317.711C81.0538 317.167 80.792 316.552 80.2526 316.336C79.7132 316.12 79.1023 316.384 78.8882 316.927L65.51 350.771C65.2958 351.315 65.5576 351.93 66.097 352.146C66.6364 352.362 67.2473 352.098 67.4615 351.555Z" fill="#466EB6"/>
                    <path d="M73.8352 347.096L84.8218 319.307C85.036 318.763 84.7741 318.147 84.2347 317.931C83.6953 317.715 83.0845 317.979 82.8703 318.523L71.8838 346.312C71.6697 346.856 71.9314 347.471 72.4708 347.687C73.0103 347.907 73.621 347.643 73.8352 347.096Z" fill="#466EB6"/>
                    <path d="M75.4217 354.754L88.7998 320.91C89.014 320.367 88.7522 319.751 88.2128 319.535C87.6734 319.319 87.0626 319.583 86.8485 320.127L73.4703 353.97C73.2561 354.514 73.5179 355.13 74.0573 355.346C74.5967 355.562 75.2075 355.298 75.4217 354.754Z" fill="#466EB6"/>
                    <path d="M82.4537 348.631L92.7819 322.51C92.9961 321.966 92.7343 321.35 92.1949 321.134C91.6555 320.918 91.0447 321.182 90.8305 321.726L80.5024 347.848C80.2882 348.391 80.55 349.007 81.0894 349.223C81.6288 349.439 82.2396 349.175 82.4537 348.631Z" fill="#466EB6"/>
                    <path d="M67.8223 314.1L68.092 313.42C68.1911 313.168 68.4609 313.04 68.6949 313.136L73.7796 315.18C74.0136 315.272 74.1246 315.552 74.0255 315.804L73.7558 316.484C73.6567 316.735 73.3869 316.863 73.1529 316.767L68.0682 314.724C67.8342 314.632 67.7232 314.352 67.8223 314.1Z" fill="#355389"/>
                    <path d="M66.6681 317.015L66.9378 316.336C67.037 316.084 67.3067 315.956 67.5407 316.052L72.6254 318.095C72.8595 318.187 72.9705 318.467 72.8713 318.719L72.6016 319.399C72.5025 319.651 72.2328 319.779 71.9987 319.683L66.914 317.639C66.68 317.547 66.569 317.267 66.6681 317.015Z" fill="#355389"/>
                    <path d="M65.5179 319.93L65.7875 319.251C65.8867 318.999 66.1564 318.871 66.3904 318.967L71.4752 321.01C71.7092 321.102 71.8203 321.382 71.7211 321.634L71.4514 322.314C71.3522 322.566 71.0825 322.694 70.8485 322.598L65.7638 320.554C65.5258 320.462 65.4187 320.182 65.5179 319.93Z" fill="#355389"/>
                    <path d="M64.3638 322.846L64.6334 322.166C64.7326 321.914 65.0023 321.786 65.2363 321.882L70.3211 323.926C70.5551 324.022 70.6661 324.298 70.5669 324.55L70.2973 325.233C70.1981 325.485 69.9284 325.613 69.6944 325.517L64.6096 323.474C64.3756 323.378 64.2646 323.098 64.3638 322.846Z" fill="#355389"/>
                    <path d="M63.2134 325.761L63.4832 325.081C63.5823 324.829 63.852 324.701 64.086 324.797L69.1707 326.841C69.4047 326.937 69.5158 327.217 69.4167 327.465L69.147 328.144C69.0478 328.396 68.7781 328.524 68.5441 328.428L63.4593 326.385C63.2214 326.293 63.1142 326.013 63.2134 325.761Z" fill="#355389"/>
                    <path d="M62.0593 328.676L62.329 327.997C62.4282 327.745 62.6979 327.617 62.9319 327.713L68.0167 329.756C68.2507 329.852 68.3618 330.128 68.2626 330.38L67.9928 331.06C67.8937 331.312 67.624 331.44 67.39 331.344L62.3053 329.3C62.0713 329.208 61.9602 328.928 62.0593 328.676Z" fill="#355389"/>
                    <path d="M60.9091 331.592L61.1788 330.912C61.278 330.66 61.5477 330.532 61.7817 330.628L66.8664 332.671C67.1004 332.767 67.2115 333.043 67.1123 333.295L66.8426 333.975C66.7435 334.227 66.4737 334.355 66.2397 334.259L61.155 332.215C60.917 332.123 60.81 331.844 60.9091 331.592Z" fill="#355389"/>
                    <path d="M59.7549 334.507L60.0246 333.827C60.1238 333.575 60.3935 333.447 60.6275 333.543L65.7122 335.587C65.9462 335.683 66.0573 335.958 65.9581 336.21L65.6884 336.89C65.5892 337.142 65.3196 337.27 65.0856 337.174L60.0008 335.131C59.7668 335.039 59.6557 334.759 59.7549 334.507Z" fill="#355389"/>
                    <path d="M58.6048 337.422L58.8744 336.742C58.9736 336.49 59.2433 336.362 59.4773 336.458L64.5621 338.502C64.7961 338.598 64.9071 338.874 64.8079 339.126L64.5383 339.806C64.4391 340.058 64.1694 340.185 63.9354 340.09L58.8506 338.046C58.6126 337.954 58.5056 337.674 58.6048 337.422Z" fill="#355389"/>
                    <path d="M57.4506 340.337L57.7203 339.657C57.8194 339.405 58.0891 339.277 58.3231 339.373L63.4078 341.417C63.6418 341.513 63.7529 341.789 63.6538 342.041L63.3841 342.721C63.2849 342.973 63.0152 343.101 62.7812 343.005L57.6964 340.961C57.4624 340.869 57.3514 340.589 57.4506 340.337Z" fill="#355389"/>
                    <path d="M56.3003 343.253L56.57 342.569C56.6692 342.317 56.9389 342.189 57.1729 342.285L62.2576 344.328C62.4916 344.424 62.6027 344.7 62.5036 344.952L62.2338 345.632C62.1347 345.884 61.8649 346.012 61.6309 345.916L56.5463 343.872C56.3083 343.784 56.2012 343.505 56.3003 343.253Z" fill="#355389"/>
                    <path d="M55.1461 346.168L55.4158 345.488C55.5149 345.236 55.7846 345.108 56.0187 345.204L61.1034 347.248C61.3374 347.339 61.4484 347.619 61.3493 347.871L61.0796 348.551C60.9804 348.803 60.7107 348.931 60.4767 348.835L55.392 346.792C55.158 346.696 55.0469 346.42 55.1461 346.168Z" fill="#355389"/>
                    <path d="M41.0977 343.169L62.3608 373.697C62.4084 373.765 62.4441 373.841 62.4719 373.921L64.6374 380.627C64.8913 381.407 63.9949 382.051 63.3444 381.559L57.6529 377.232C57.5815 377.18 57.522 377.116 57.4704 377.044L36.1518 346.436C35.8781 346.044 35.9852 345.504 36.3858 345.244L39.9634 342.941C40.3442 342.701 40.8399 342.801 41.0977 343.169Z" fill="#B75742"/>
                    <path d="M57.4981 377.076L57.5497 377.152L63.043 381.327L64.5422 380.315L62.4877 373.957C60.8774 374.844 58.9498 375.756 57.4981 377.076Z" fill="#F7CC7F"/>
                    <path d="M256.525 12.666C253.463 15.1294 248.14 23.0553 241.346 28.6179C237.372 31.8731 234.31 31.0453 229.237 31.6611C205.17 34.5924 211.69 39.5551 208.803 40.043C209.624 41.9465 217.12 58.0144 218.52 61.2655C219.813 64.2608 222.046 65.6044 225.283 65.1525C230.26 64.4607 235.282 63.9408 240.184 62.8731C252.745 60.1258 259.734 53.7914 268.737 46.0974C271.125 44.0579 271.712 41.5106 270.474 38.6273C264.715 25.1988 257.148 13.9017 256.525 12.666Z" fill="#5870F3"/>
                    <path d="M206.197 59.378C206.304 64.6646 205.904 65.7283 208.156 64.9245C209.513 64.4407 210.826 63.8128 212.107 63.145C213.011 62.6731 213.047 62.0533 212.313 61.3095C211.246 60.2257 210.147 59.174 209.077 58.1223C209.858 56.0468 208.962 53.6354 207.038 52.4997C206.645 52.2678 206.931 52.7597 203.579 44.9817C214.665 43.602 222.483 42.6782 236.007 41.0027C239.625 40.5548 242.837 39.1392 245.634 36.7798C255.291 28.6299 264.949 20.484 274.603 12.3261C275.912 11.2183 276.078 9.59876 275.039 8.35108C274.246 7.39533 273.191 7.35134 272.057 7.49531C268.971 7.88721 238.712 11.6742 235.639 12.0381C231.601 12.514 228.047 14.0456 224.926 16.6809C215.438 24.6909 205.923 32.6768 196.424 40.6708C195.119 41.7665 194.766 42.7742 195.226 43.9939C195.73 45.3336 196.829 45.9734 198.491 45.6135C199.688 45.3536 200.22 45.7175 200.632 46.8372C202.497 51.8959 203.797 53.0156 203.345 54.8631C202.996 56.2908 204.678 58.7581 206.197 59.378Z" fill="#90A1FF"/>
                    <path d="M155.996 418.617L150.483 423.92C137.438 436.465 126.801 451.325 119.106 467.757L118.261 469.56C118.261 469.56 103.82 470.848 101.805 457.683C114.473 443.259 124.905 427.863 133.511 410.735L136.121 404.581L155.996 418.617Z" fill="white"/>
                    <path d="M136.133 404.565C135.423 405.589 139.298 409.548 144.784 413.407C150.269 417.266 155.318 419.609 156.028 418.586C156.738 417.562 152.839 413.555 147.35 409.696C141.861 405.837 136.839 403.537 136.133 404.565Z" fill="#86B1F2"/>
                    <path d="M136.109 404.601L136.125 404.581C136.125 404.581 147.116 413.963 151.649 414.918L150.249 416.838C148.595 415.934 146.715 414.762 144.78 413.403C139.358 409.592 135.511 405.681 136.109 404.601Z" fill="white"/>
                    <path d="M121.422 431.838C121.402 433.454 122.017 440.436 133.535 443.347C132.778 444.387 132.032 445.439 131.302 446.498C124.012 444.327 120.732 440.552 119.261 437.677C119.027 437.221 118.745 436.613 118.559 436.141C119.53 434.717 120.486 433.286 121.422 431.838Z" fill="#B75742"/>
                    <path d="M132.5 441.284L149.452 440.672L145.434 444.111L147.834 448.502L131.79 444.379L132.5 441.284Z" fill="#B75742"/>
                    <path d="M130.957 445.259L136.978 455.836L132.742 454.212L131.112 457.572L128.28 446.446L130.957 445.259Z" fill="#B75742"/>
                    <path d="M134.42 442.916C134.203 446.009 131.614 448.344 128.638 448.132C125.662 447.919 123.426 445.24 123.643 442.147C123.86 439.054 126.448 436.718 129.424 436.931C132.4 437.143 134.637 439.823 134.42 442.916Z" fill="#F47458"/>
                    <path d="M92.6751 208.12L128.371 176.004C130.692 173.916 129.724 169.622 126.523 167.794L98.0335 151.53C96.209 150.49 94.1545 150.586 92.8338 151.774L57.1375 183.89C54.8172 185.977 55.785 190.272 58.9857 192.1L87.4754 208.364C89.2998 209.407 91.3543 209.311 92.6751 208.12Z" fill="#5870F3"/>
                    <path d="M94.3686 182.574L97.3433 157.9C97.4584 156.957 96.7762 155.945 95.8204 155.645C94.8645 155.345 93.9958 155.869 93.8848 156.813L91.1441 179.519L64.0744 186.117C63.1939 186.333 62.7854 187.293 63.1662 188.261C63.5469 189.228 64.5742 189.84 65.4587 189.624L94.3686 182.574Z" fill="white"/>
                    <path d="M560.506 69.5474L556.818 76.9095L548.481 76.6375L544.923 85.1794L536.134 82.1321L531.688 91.6137L523.251 89.8141L517.496 98.232L520.654 100.427L524.961 94.133L533.865 96.0365L538.137 86.9189L547.073 90.0181L550.999 80.5925L559.138 80.8565L562.561 74.0342L567.868 75.3379L568.776 71.5748L560.506 69.5474Z" fill="#F7CC7F"/>
                    <path d="M114.085 257.811L106.509 260.914L100.401 255.188L92.1515 259.275L87.5109 251.153L77.9801 255.36L72.7922 248.413L62.9677 250.949L63.9196 254.696L71.2651 252.804L76.7386 260.134L85.9007 256.091L90.6205 264.349L99.723 259.838L105.684 265.429L112.709 262.554L115.866 267.053L118.999 264.817L114.085 257.811Z" fill="#50BFA5"/>
                    <defs>
                    <filter id="filter0_d_2_324" x="0" y="93" width="623" height="577" filterUnits="userSpaceOnUse" color-interpolation-filters="sRGB">
                    <feFlood flood-opacity="0" result="BackgroundImageFix"/>
                    <feColorMatrix in="SourceAlpha" type="matrix" values="0 0 0 0 0 0 0 0 0 0 0 0 0 0 0 0 0 0 127 0" result="hardAlpha"/>
                    <feOffset dy="3"/>
                    <feGaussianBlur stdDeviation="12.5"/>
                    <feComposite in2="hardAlpha" operator="out"/>
                    <feColorMatrix type="matrix" values="0 0 0 0 0.507542 0 0 0 0 0.533111 0 0 0 0 0.65 0 0 0 0.14 0"/>
                    <feBlend mode="normal" in2="BackgroundImageFix" result="effect1_dropShadow_2_324"/>
                    <feBlend mode="normal" in="SourceGraphic" in2="effect1_dropShadow_2_324" result="shape"/>
                    </filter>
                    <filter id="filter1_d_2_324" x="49.4414" y="140.544" width="525.615" height="525.615" filterUnits="userSpaceOnUse" color-interpolation-filters="sRGB">
                    <feFlood flood-opacity="0" result="BackgroundImageFix"/>
                    <feColorMatrix in="SourceAlpha" type="matrix" values="0 0 0 0 0 0 0 0 0 0 0 0 0 0 0 0 0 0 127 0" result="hardAlpha"/>
                    <feOffset dy="3"/>
                    <feGaussianBlur stdDeviation="12.5"/>
                    <feComposite in2="hardAlpha" operator="out"/>
                    <feColorMatrix type="matrix" values="0 0 0 0 0.507542 0 0 0 0 0.533111 0 0 0 0 0.65 0 0 0 0.14 0"/>
                    <feBlend mode="normal" in2="BackgroundImageFix" result="effect1_dropShadow_2_324"/>
                    <feBlend mode="normal" in="SourceGraphic" in2="effect1_dropShadow_2_324" result="shape"/>
                    </filter>
                    <linearGradient id="paint0_linear_2_324" x1="311.5" y1="115" x2="311.5" y2="642" gradientUnits="userSpaceOnUse">
                    <stop stop-color="#455FE8"/>
                    <stop offset="1" stop-color="#7187F7"/>
                    </linearGradient>
                    <linearGradient id="paint1_linear_2_324" x1="312.249" y1="162.544" x2="312.249" y2="638.159" gradientUnits="userSpaceOnUse">
                    <stop stop-color="#455FE8"/>
                    <stop offset="1" stop-color="#7187F7"/>
                    </linearGradient>
                    </defs>
                </svg>  